<svg xmlns="http://www.w3.org/2000/svg" viewBox="-695 1271 1955.158 1069.292">
  <defs>
    <style>
      .cls-1 {
        fill: #1fe1e5;
      }
    </style>
  </defs>
  <g id="Symbol_1_2" data-name="Symbol 1 – 2" transform="translate(-695 1254.745)">
    <path id="Path_1" data-name="Path 1" class="cls-1" d="M38.117,758.629h160.1a19.094,19.094,0,0,0,1.473-2.008l.4-1.2c.134-1.339.134-2.677.134-4.016q-.2-45.58-.4-91.161a1.015,1.015,0,0,0-.268-.536c-.134-.134-.268-.268-1.339-1.2-1.2,0-3.347-.268-5.488-.268H48.692c-2.142,0-4.417.134-6.559,0a30.12,30.12,0,0,1-4.417-1.071v-70.68c2.543-2.543,5.488-2.008,8.433-2.008H216.691c2.142,0,4.15-.268,7.095-.4.4-7.095.134-13.654.134-20.213V523.565c0-6.827.134-13.654,0-20.481-.134-6.559.4-13.119-.268-20.213-2.41-.4-4.15-1.071-6.024-1.071-2.276,0-134.131.134-217.528.268v414.44H37.448V765.724C37.448,763.582,37.849,761.574,38.117,758.629Z" transform="translate(-0.039 189.038)"/>
    <path id="Path_2" data-name="Path 2" class="cls-1" d="M680.474,571.662h-2.158c-2.158,0-4.316-.617-6.32,1.85,0,1.079-.308,2.466-.308,3.854v221.21a75.247,75.247,0,0,1-1.079,11.716,31.174,31.174,0,0,1-10.482,18.961c-8.479,7.862-19.269,11.87-30.522,13.1a56.88,56.88,0,0,1-31.447-4.933c-9.712-4.47-16.957-11.1-21.119-21.119-2.158-5.241-2.62-10.791-2.62-16.34V577.674c0-1.542-.154-3.237-.154-4.316-2.312-2.312-4.779-1.7-7.091-1.7H497.957c-2.929,0-5.7-.462-8.633-.462-1.233,0-2.312.617-4.008,1.079-.154,2.158-.617,4.316-.617,6.32V810.137c0,4.625,0,9.557,1.233,13.874,2.312,8.787,4.316,17.574,8.016,26.052a114.724,114.724,0,0,0,19.732,30.676,123.294,123.294,0,0,0,34.684,26.206c3.391,1.7,6.937,3.237,10.328,4.779H680.32V571.662Z" transform="translate(1239.525 168.129)"/>
    <path id="Path_3" data-name="Path 3" class="cls-1" d="M380.116,708.027c-1.037.948-2.074,2.015-3.241,3.081.648.711,1.037,1.185,1.555,1.659l10.11,9.955L403.707,737.3c.907.948,1.815,2.015,2.722,2.963,1.555,1.541,2.852,3.437,5.185,4.148,5.185-3.437,9.592-7.585,14-11.614a91.47,91.47,0,0,0,15.3-18.844,81.1,81.1,0,0,0,9.073-20.147c1.556-5.57,2.981-11.259,2.463-17.184-.259-3.2,0-6.518-.13-9.718a43.958,43.958,0,0,0-.648-7.111,85.4,85.4,0,0,0-3.629-15.051,82.85,82.85,0,0,0-2.722-7.94c-2.333-4.978-4.537-9.837-7.777-14.459a94.631,94.631,0,0,0-10.629-12.8,72.88,72.88,0,0,0-20.221-13.392c-4.537-2.015-9.333-2.963-14.129-4.03a50.042,50.042,0,0,0-11.925-.711c-4.925,0-9.851.356-14.777.593a2.753,2.753,0,0,0-1.037.118c-5.7,1.541-11.536,2.607-17.11,4.859a54.964,54.964,0,0,0-20.739,14.814c-7,7.94-11.536,17.185-14.906,26.9-2.852,8.059-4.666,16.355-6.611,24.651a27.322,27.322,0,0,1-.648,3.437c-1.037,2.963-2.2,5.807-3.241,8.77a24.76,24.76,0,0,1-4.537,7.941c-2.463,2.844-5.185,5.57-9.2,6.281a18.241,18.241,0,0,1-16.851-5.333c-4.148-4.267-5.7-9.481-5.833-15.17a38.769,38.769,0,0,1,2.981-16.71c2.333-5.452,5.055-10.666,9.2-15.051,1.815-1.9,3.5-3.793,5.444-5.807,0-.711-.13-1.541-.13-1.9-9.462-11.14-18.665-21.807-27.609-32.354a3.375,3.375,0,0,0-3.629.83,18.417,18.417,0,0,1-2.852,2.489c-4.8,3.2-8.425,7.585-12.184,11.733a88.482,88.482,0,0,0-8.944,12.681c-2.592,4.266-4.148,8.888-5.963,13.392a51.744,51.744,0,0,0-2.722,10.666,48.817,48.817,0,0,0-1.3,9.6c0,6.874-.648,13.866.519,20.74.648,4.148,1.3,8.3,2.333,12.325a92.164,92.164,0,0,0,3.37,9.481,65.794,65.794,0,0,0,8.685,15.762c1.815,2.37,3.889,4.622,5.963,6.874a24.516,24.516,0,0,0,3.5,3.674c5.7,4.148,11.147,8.533,18.147,10.785,2.852.948,5.574,2.133,8.425,2.963,2.074.592,4.407.592,6.611,1.067a48.807,48.807,0,0,0,18.536.474c5.055-.711,10.37-.948,15.036-3.081,3.241,0,5.963-1.541,8.555-2.844a67.363,67.363,0,0,0,21.128-14.814,75.646,75.646,0,0,0,10.888-14.577,68.616,68.616,0,0,0,7-16.355c.389-1.659,3.241-14.1,4.148-18.607,4.148-17.9,12.444-28.562,19.573-28.562,6.351-.355,10.759,2.37,14,7.111,2.981,4.385,4.018,9.126,4.277,14.1a52.059,52.059,0,0,1-4.277,23.347A55.756,55.756,0,0,1,380.116,708.027Z" transform="translate(600.603 254.135)"/>
    <path id="Path_4" data-name="Path 4" class="cls-1" d="M0,249.272H7.985c1.248,0,2.62-.111,3.494-.111,1.872-1.445,1.248-2.891,1.248-4.336V160.437c0-1.445-.374-2.891.873-4.114H91.206c1.5,1.557,1.248,3.113,1.248,4.67v39.025c-.125,15.454-.25,30.909-.374,46.474a9.73,9.73,0,0,0,.873,2.78h68.872a18.783,18.783,0,0,0,2.121-.445c.374-.667.5-.889.5-1.112q0-122.412.125-244.824a6.747,6.747,0,0,0-.25-1.557c0-.111-.125-.222-.25-.334L163.2.223C159.2-.221,154.588.112,149.972.112h-42.92c-4.616.111-9.233-.334-13.35.111-2.5,2.224-1.123,4.336-1.123,6.337V91.282a14.507,14.507,0,0,1-.5,3.113H13.225a9.923,9.923,0,0,1-.749-2.557c0-1.779.374-3.558.374-5.448V3.225A3.2,3.2,0,0,0,10.481,0H0V249.272Z" transform="translate(0 16.263)"/>
    <path id="Path_5" data-name="Path 5" class="cls-1" d="M396.161,296.766c1.254,0,2.507-.139,3.9-.279,1.115-3.622,2.229-6.965,3.2-10.309s1.95-6.826,2.925-10.169c1.254-4.04,2.647-8.08,4.04-12.259,1.393-4.318,2.647-8.637,4.04-12.955a8.115,8.115,0,0,1,1.532-2.09h62.548a4.637,4.637,0,0,1,.836,1.393c2.229,6.129,4.458,12.4,6.408,18.528,1.95,5.99,3.622,12.12,5.572,18.11.7,2.368,1.393,4.876,2.229,7.244a24.084,24.084,0,0,0,1.811,2.925h59.344c1.532,0,3.065.139,4.6,0a8.344,8.344,0,0,0,2.229-1.114c-1.254-3.622-2.229-6.965-3.483-10.309-1.672-4.736-3.483-9.473-5.294-14.209-1.811-4.876-3.622-9.751-5.294-14.627-1.95-5.433-3.622-11.005-5.712-16.438-3.343-9.194-6.687-18.249-10.03-27.3-2.229-5.99-4.318-12.12-6.547-18.11-.836-2.368-2.09-4.6-2.508-7.1-.7-3.343-2.368-6.269-3.343-9.612-1.532-5.433-3.9-10.587-5.851-16.02-1.811-5.015-3.2-10.03-5.015-15.045-1.95-5.294-4.04-10.587-5.99-15.881-1.811-5.015-21.592-60.04-22.567-62.966-1.254-3.483-2.507-7.1-3.761-10.726-.418-1.254-.975-2.507-1.532-3.761a11.586,11.586,0,0,0-1.811-.279H420.818a16.623,16.623,0,0,0-3.622.7c-.7,2.09-1.254,3.761-1.811,5.572-1.254,3.761-2.508,7.383-3.761,11.144-.836,2.647-1.811,5.294-2.786,7.8-1.393,3.761-2.786,7.522-4.04,11.423-.975,2.786-1.811,5.572-2.786,8.219-2.09,5.712-4.179,11.423-6.129,17.135-.557,1.672-1.254,3.343-1.811,5.015-1.254,3.483-2.368,6.965-3.622,10.309-.7,1.95-.975,3.9-1.811,5.711-1.672,3.483-2.507,7.383-3.9,11.005-1.114,2.925-2.229,5.851-3.2,8.916l-5.851,17.135c-1.114,3.343-2.368,6.547-3.622,9.891-.975,2.647-2.229,5.154-2.786,7.8-.836,3.9-2.647,7.383-3.761,11.005-1.114,3.483-2.229,6.965-3.483,10.448-1.672,4.876-3.2,9.751-5.015,14.627-1.811,5.015-3.761,9.891-5.572,14.766-1.95,5.712-3.9,11.423-5.851,17.274-2.09,5.99-4.04,11.841-6.269,17.692-1.114,2.647-1.672,5.572-2.647,8.219-.975,2.925-2.368,5.572-3.343,8.5a8.38,8.38,0,0,0,0,2.647,23.441,23.441,0,0,0,2.786.279C356.181,296.766,376.241,296.766,396.161,296.766Zm34.269-110.608c1.114-4.458,2.507-8.916,3.622-13.513,1.114-4.318,1.95-8.637,2.925-12.816.139-.557.279-.975.418-1.393,2.09-7.94,4.179-15.881,6.129-23.821.836-3.065,1.393-6.129,2.09-9.194a9.142,9.142,0,0,1,1.393-2.368c.557,1.393,1.114,2.229,1.393,3.2,1.114,4.876,2.368,9.751,3.483,14.766.975,4.458,1.95,8.916,2.925,13.234.418,1.672.975,3.343,1.393,5.154,1.114,4.876,2.09,9.891,3.2,14.766,1.254,5.015,2.647,10.03,3.9,14.906.279,1.114.418,2.229.7,3.761-1.393.139-2.09.279-2.786.279h-28.14c-1.254,0-2.647.279-3.483-1.393A38.483,38.483,0,0,1,430.431,186.158Z" transform="translate(70.063 178.596)"/>
    <path id="Path_6" data-name="Path 6" class="cls-1" d="M309.034,547.425a75.962,75.962,0,0,0,4.81,12.728,65.011,65.011,0,0,0,16.675,20.305A97.662,97.662,0,0,0,355.853,594.7a80.241,80.241,0,0,0,17.316,4.546c3.848.606,7.375,1.516,11.224,1.516h18.278c4.81,0,9.62-1.516,14.11-2.425,3.207-.606,6.092-2.122,9.3-3.031a80.43,80.43,0,0,0,18.6-9.092,86.654,86.654,0,0,0,11.544-9.7c6.734-5.758,11.544-12.425,16.034-19.7.641-1.212,1.283-2.424.641-3.637a42.94,42.94,0,0,0-5.451-2.424c-4.49-2.121-9.3-3.94-13.789-5.758-3.528-1.516-7.055-2.727-10.261-4.243-5.131-2.121-9.941-4.546-15.072-6.97a4.949,4.949,0,0,0-4.169-.3c-1.6,3.94-4.489,6.97-7.7,10-4.169,3.94-9.3,5.758-14.751,6.971-3.207.909-6.734.606-10.261.606-2.565,0-5.452,0-7.7-.909a47.821,47.821,0,0,1-8.338-3.334c-8.017-4.243-12.186-10-11.865-18.79V458.022a18.565,18.565,0,0,1,3.848-11.516,25.4,25.4,0,0,1,15.071-9.4,59.35,59.35,0,0,1,12.506-1.818c3.207,0,6.413.909,9.62,1.515a33.12,33.12,0,0,1,15.392,7.576c2.566,2.122,4.49,4.849,7.375,7.577a4.069,4.069,0,0,0,1.924,0c1.924-.606,3.848-1.516,5.772-2.122l6.734-2.727c4.49-1.515,8.658-3.031,13.147-4.546,4.81-1.818,9.3-3.637,14.11-5.455a30.011,30.011,0,0,0,4.489-2.121,8.54,8.54,0,0,0-.962-3.031c-1.924-3.031-3.527-6.364-5.772-9.395a76.6,76.6,0,0,0-18.278-19.4,88.787,88.787,0,0,0-14.751-8.789c-4.489-2.121-8.979-3.334-13.468-4.849a39.142,39.142,0,0,0-5.772-1.212,86.333,86.333,0,0,0-8.658-1.515c-5.131-.3-10.262-.3-15.072-.3-3.207,0-6.734.606-9.941.606-2.886,0-5.451,1.212-8.017,1.515-6.093.909-11.544,3.031-17,4.546-1.6.606-3.527,1.212-5.13,1.818-3.207,1.516-6.414,3.334-9.62,5.152a57.813,57.813,0,0,0-13.148,9.7c-2.565,2.727-4.81,5.455-7.375,8.183a45.6,45.6,0,0,0-8.017,13.638c-1.283,3.031-1.924,6.667-2.886,10a33.914,33.914,0,0,0-1.6,11.213v78.492A34.411,34.411,0,0,0,309.034,547.425Z" transform="translate(799 -327.245)"/>
    <path id="Path_7" data-name="Path 7" class="cls-1" d="M649.115,608.605c2.436-.812,2.111,13.3,2.111,11.673V535.172c-16.729-12.506-33.782-24.849-50.674-37.193-17.054-12.506-34.107-25.174-51.161-37.68.975-1.624,2.6-1.3,4.06-1.3h93.226c1.462,0,2.923.487,4.385-1.3,0-.65.162-1.787.162-2.761v-64.8a3.478,3.478,0,0,0-2.111-3.735H368.136c-1.462,4.06-.65,7.958-.65,11.856-.162,4.06,0,7.958,0,12.019v36.543c.162,3.9-.487,7.958.325,12.019a27.542,27.542,0,0,0,3.573.162h88.029a33.879,33.879,0,0,1,4.06,0,21.212,21.212,0,0,1,2.436.812c.487,1.949-.487,2.761-1.624,3.573-8.608,6.172-17.378,12.344-25.986,18.515-9.583,6.822-19.165,13.805-28.748,20.627-7.471,5.36-14.78,10.719-22.251,16.079l-15.1,10.719c-1.624,1.137-3.248,2.436-4.873,3.573v86.892c0,1.462-.487,2.923,1.462,4.547q72.113-55.3,145.037-110.767C559.137,550.6,604.126,571.574,649.115,608.605Z" transform="translate(1303.911 -191.387)"/>
  </g>
</svg>
