<?xml version="1.0" encoding="UTF-8" standalone="no"?>
<!DOCTYPE svg PUBLIC "-//W3C//DTD SVG 1.1//EN" "http://www.w3.org/Graphics/SVG/1.1/DTD/svg11.dtd">
<svg width="100%" height="100%" viewBox="0 0 1822 593" version="1.1" xmlns="http://www.w3.org/2000/svg" xmlns:xlink="http://www.w3.org/1999/xlink" xml:space="preserve" xmlns:serif="http://www.serif.com/" style="fill-rule:evenodd;clip-rule:evenodd;stroke-linejoin:round;stroke-miterlimit:1.41421;">
    <g transform="matrix(1,0,0,1,2.59721e-05,-1.45003)">
        <g transform="matrix(1,0,0,0.669251,0,0)">
            <g id="Feather" transform="matrix(4.16667,0,0,6.22587,0,0)">
                <path d="M308.372,44.07L330.01,73.753L329.904,73.878L329.139,74.77L304.624,103.412C304.624,103.412 304.412,116.583 311.908,121.767L350.239,79.856L424.414,79.856C424.414,79.856 386.154,122.936 382.195,128.13C378.243,133.322 372.391,132.524 372.391,132.524L354.972,132.524L339.821,123.881L339.838,132.524L185.026,132.524L165.356,118.923L166.349,132.524L162.601,132.524L150.356,119.097L152.479,132.524C152.479,132.524 141.705,132.602 137.132,132.524C132.553,132.443 130.998,128.717 130.998,128.717L110.581,96.683C107.487,97.786 84.563,103.776 84.77,103.984L80.089,101.546C80.089,101.546 101.584,89.047 104.44,88.283L35.862,83.994L34.828,79.251L182.257,79.251L216.894,117.76C225.3,113.186 226.269,102.131 226.269,102.131L202.48,73.738L225.997,43.348C226.019,30.735 217.012,25.466 217.012,25.466L182.257,70.225L10.278,70.225L10.286,63.076L101.072,54.8L129.05,14.945C129.05,14.945 132.159,10.724 134.308,11.05C138.882,11.058 144.89,11.05 144.89,11.05L157.687,24.256L156.774,11.05L224.475,11.05L246.092,23.153L245.84,11.05L373.134,11.05C373.134,11.05 380.541,10.486 385.131,17.37C388.641,22.631 424.414,70.715 424.414,70.715L350.239,70.715L315.645,25.656C307.622,31.868 308.372,44.07 308.372,44.07ZM434.255,67.445C433.919,66.287 433.4,65.174 432.656,64.173C431.708,62.9 430.725,61.578 429.718,60.222C427.109,56.424 424.324,52.784 422.233,50.142C409.44,32.893 395.595,14.135 393.677,11.26C388.443,3.411 381.044,1.184 376.574,0.577L376.574,0.499L375.99,0.499C374.959,0.383 374.118,0.354 373.543,0.354C373.28,0.354 373.057,0.359 372.876,0.366L146.52,0.499C145.984,0.413 145.438,0.366 144.887,0.366L144.873,0.366C144.872,0.366 134.29,0.348 134.071,0.348L134.062,0.348C127.686,0.348 122.999,5.421 120.773,8.445C120.727,8.507 120.682,8.57 120.639,8.633L95.394,44.59L9.35,52.434C4.063,52.917 0.014,57.346 0.008,62.655L0,69.805C-0.003,72.532 1.077,75.148 3.005,77.078C4.932,79.008 7.547,80.093 10.275,80.093L24.636,80.093C24.674,80.406 24.717,80.72 24.786,81.031L25.819,85.772C26.797,90.261 30.633,93.554 35.217,93.841L71.137,96.087C70.243,97.672 69.769,99.493 69.813,101.377C69.901,105.122 72.019,108.522 75.341,110.251L80.022,112.688C81.53,113.473 83.155,113.85 84.762,113.85C86.107,113.85 87.44,113.585 88.682,113.076C90.268,112.592 95.385,111.198 99.201,110.157C101.88,109.426 104.144,108.807 106.046,108.282L122.011,133.327C124.385,137.905 129.705,142.263 136.949,142.389C137.807,142.403 138.944,142.413 140.287,142.418L140.287,142.563L359.976,142.563L359.976,142.39L371.945,142.39C372.312,142.414 372.753,142.434 373.258,142.434C380.024,142.434 386.26,139.34 390.369,133.947C392.481,131.172 407.754,113.776 421.343,98.405C424.337,95.37 428.368,91.063 431.63,86.793C431.786,86.62 431.943,86.442 432.095,86.272C432.622,85.677 433.05,85.021 433.418,84.341C435.765,80.935 437.372,77.726 437.267,75.419C437.175,73.405 435.987,70.568 434.255,67.445Z" style="fill:white;fill-rule:nonzero;"/>
                <path d="M275.571,28.488L238.567,125.055L247.131,125.072C251.331,125.078 255.681,122.615 257.64,117.885L294.242,21.729L285.689,21.71C281.029,21.703 277.319,24.082 275.571,28.488Z" style="fill:white;fill-rule:nonzero;"/>
            </g>
        </g>
    </g>
</svg>
