<?xml version="1.0" encoding="UTF-8" standalone="no"?>
<!DOCTYPE svg PUBLIC "-//W3C//DTD SVG 1.1//EN" "http://www.w3.org/Graphics/SVG/1.1/DTD/svg11.dtd">
<svg width="100%" height="100%" viewBox="0 0 1920 1235" version="1.1" xmlns="http://www.w3.org/2000/svg" xmlns:xlink="http://www.w3.org/1999/xlink" xml:space="preserve" xmlns:serif="http://www.serif.com/" style="fill-rule:evenodd;clip-rule:evenodd;stroke-linejoin:round;stroke-miterlimit:1.41421;">
    <g id="Web_1920_1" transform="matrix(1,0,0,1,-1983,108)">
        <g id="Group_16" transform="matrix(1,0,0,1,1932,18)">
            <g id="Path_50" transform="matrix(1,0,0,1,76.651,190.551)">
                <path d="M58.618,106.788L60.195,100.797L51.681,98.59L54.2,90.077L47.9,88.5L45.69,96.7L37.49,94.493L35.6,100.482L44.113,103L41.591,111.2L47.897,112.777L50.104,104.577L58.618,106.788Z" style="fill:rgb(211,220,0);fill-rule:nonzero;"/>
            </g>
            <g id="Path_51" transform="matrix(1,0,0,1,98.613,32.727)">
                <path d="M68.5,33.8L70.077,27.809L61.877,25.287L64.084,17.087L58.1,15.2L55.578,23.713L47.378,21.506L45.8,27.5L54,29.7L51.793,38.213L57.784,39.79L59.991,31.59L68.5,33.8Z" style="fill:rgb(211,220,0);fill-rule:nonzero;"/>
            </g>
            <g id="Path_52" transform="matrix(1,0,0,1,229.737,0)">
                <path d="M129.4,18.288L131.292,12.297L122.779,10.09L125.3,1.577L119,0L116.79,8.2L108.277,5.993L106.7,12.3L115.213,14.507L112.69,22.707L119,24.594L121.207,16.081L129.4,18.288Z" style="fill:rgb(211,220,0);fill-rule:nonzero;"/>
            </g>
            <g id="Path_53" transform="matrix(1,0,0,1,115.192,104.641)">
                <path d="M76.2,66.888L53.5,66.888L64.851,48.6L76.2,66.888Z" style="fill:rgb(211,220,0);fill-rule:nonzero;"/>
            </g>
            <g id="Path_54" transform="matrix(1,0,0,1,284.857,43.278)">
                <path d="M155,38.388L132.3,38.388L143.651,20.1L155,38.388Z" style="fill:rgb(211,220,0);fill-rule:nonzero;"/>
            </g>
            <g id="Path_55" transform="matrix(1,0,0,1,177.201,9.474)">
                <path d="M101.849,13.859L82.3,25.841L82.615,4.4L101.849,13.859Z" style="fill:rgb(211,220,0);fill-rule:nonzero;"/>
            </g>
            <g id="Path_56" transform="matrix(1,0,0,1,61.148,151.579)">
                <path d="M51.1,88.373L28.4,88.373L39.751,70.4L51.1,88.373Z" style="fill:rgb(211,220,0);fill-rule:nonzero;"/>
            </g>
            <g id="Ellipse_1" transform="matrix(1,0,0,1,229.231,98.377)">
                <circle cx="11.036" cy="11.036" r="11.036" style="fill:rgb(211,220,0);"/>
            </g>
            <g id="Ellipse_2" transform="matrix(1,0,0,1,337.698,87.341)">
                <circle cx="11.036" cy="11.036" r="11.036" style="fill:rgb(211,220,0);"/>
            </g>
            <g id="Path_57" transform="matrix(1,0,0,1,183.876,121.866)">
                <path d="M85.4,103.9L94.229,97.594L87.922,85.609L98.958,77.726L92.652,65.744L106.211,56.6L109.679,61.645L100.85,67.951L107.472,79.933L96.121,87.5L102.743,99.8L89.185,108.944L85.4,103.9Z" style="fill:rgb(211,220,0);fill-rule:nonzero;"/>
            </g>
            <g id="Path_58" transform="matrix(1,0,0,1,4.426,285.737)">
                <path d="M132.1,112.2L140.929,106.209L134.308,94.227L145.659,86.344L139.038,74.362L152.6,64.9L156.384,69.945L147.555,76.251L153.861,88.233L142.825,96.116L149.131,108.098L135.573,117.557L132.1,112.2Z" style="fill:rgb(211,220,0);fill-rule:nonzero;"/>
            </g>
            <g id="Path_59" transform="matrix(1,0,0,1,30.144,26.483)">
                <path d="M43.639,55.182L43.008,44.461L29.134,43.515L28.5,29.957L14.942,29.326L14,12.615L20.306,12.3L20.937,23.336L34.495,23.967L35.126,37.525L49,38.471L49.946,54.871L43.639,55.182Z" style="fill:rgb(211,220,0);fill-rule:nonzero;"/>
            </g>
            <g id="Path_60" transform="matrix(1,0,0,1,130.934,164.067)">
                <path d="M74.964,103.632C69.065,103.722 63.727,100.036 61.721,94.488C60.405,90.907 60.518,86.952 62.036,83.452C63.571,80.067 66.418,77.448 69.919,76.2L72.126,82.191C70.178,82.931 68.593,84.402 67.712,86.291C66.825,88.169 66.712,90.322 67.397,92.282C68.136,94.232 69.61,95.819 71.5,96.7C73.378,97.587 75.531,97.7 77.491,97.015L79.694,103C78.142,103.365 76.558,103.577 74.964,103.632Z" style="fill:rgb(211,220,0);fill-rule:nonzero;"/>
            </g>
            <g id="Path_61" transform="matrix(1,0,0,1,-35.161,276.474)">
                <path d="M100.464,115.432C94.565,115.522 89.227,111.836 87.221,106.288C85.905,102.707 86.018,98.752 87.536,95.252C89.071,91.867 91.918,89.248 95.419,88L97.626,93.991C95.678,94.731 94.093,96.202 93.212,98.091C92.325,99.969 92.212,102.122 92.897,104.082C93.636,106.032 95.11,107.619 97,108.5C98.878,109.387 101.031,109.5 102.991,108.815L105.198,114.806C103.676,115.323 102.068,115.536 100.464,115.432Z" style="fill:rgb(211,220,0);fill-rule:nonzero;"/>
            </g>
            <g id="Path_62" transform="matrix(1,0,0,1,71.584,435.225)">
                <path d="M133.763,75.745C133.388,77.811 132.523,79.758 131.241,81.421C129.111,84.494 125.799,86.552 122.1,87.1C118.335,87.707 114.479,86.8 111.379,84.578C108.304,82.446 106.246,79.132 105.7,75.43L112.006,74.484C112.643,78.246 115.935,81.027 119.751,81.027C124.06,81.027 127.606,77.481 127.606,73.172C127.606,72.66 127.556,72.149 127.456,71.646L133.762,70.7C134.078,72.367 134.079,74.078 133.763,75.745Z" style="fill:rgb(211,220,0);fill-rule:nonzero;"/>
            </g>
            <g id="Path_63" transform="matrix(1,0,0,1,48.04,92.153)">
                <path d="M36.464,70.232C30.565,70.322 25.227,66.636 23.221,61.088C21.905,57.507 22.018,53.552 23.536,50.052C25.071,46.667 27.918,44.048 31.419,42.8L33.626,48.791C31.678,49.531 30.093,51.002 29.212,52.891C28.325,54.769 28.212,56.922 28.897,58.882C29.636,60.832 31.11,62.419 33,63.3C34.878,64.187 37.031,64.3 38.991,63.615L41.194,69.6C39.65,70.008 38.061,70.22 36.464,70.232Z" style="fill:rgb(211,220,0);fill-rule:nonzero;"/>
            </g>
            <g id="Ellipse_2-2" transform="matrix(1,0,0,1,112.698,462.341)">
                <circle cx="11.036" cy="11.036" r="11.036" style="fill:rgb(211,220,0);"/>
            </g>
        </g>
        <g id="Path_1" transform="matrix(1,0,0,1,2807.03,-298.039)">
            <path d="M308.822,524.654C309.869,528.413 311.251,532.07 312.952,535.581C316.487,542.305 321.359,548.237 327.267,553.013C333.866,558.151 341.197,562.273 349.016,565.241C353.81,567.091 358.797,568.4 363.882,569.141C367.182,569.661 370.214,570.441 373.517,570.441L389.209,570.441C393.339,570.441 397.468,569.141 401.322,568.36C404.075,567.84 406.552,566.539 409.305,565.76C414.942,563.857 420.309,561.234 425.273,557.955C428.812,555.473 432.128,552.687 435.183,549.629C440.964,544.686 445.094,538.962 448.948,532.717C449.499,531.677 450.048,530.636 449.499,529.595C447.989,528.794 446.425,528.098 444.819,527.514C440.965,525.693 436.835,524.132 432.981,522.571C429.953,521.271 426.924,520.23 424.171,518.928C419.771,517.107 415.637,515.028 411.232,512.944C410.137,512.333 408.825,512.238 407.653,512.684C406.277,516.066 403.799,518.668 401.046,521.27C397.467,524.653 393.062,526.213 388.382,527.254C385.629,528.035 382.601,527.774 379.573,527.774C377.342,527.917 375.103,527.652 372.966,526.993C370.496,526.266 368.099,525.307 365.808,524.131C358.926,520.489 355.347,515.545 355.622,508L355.622,447.9C355.583,444.328 356.745,440.845 358.922,438.013C362.123,433.856 366.719,430.991 371.861,429.947C375.374,429.046 378.974,428.523 382.598,428.386C385.351,428.386 388.104,429.167 390.857,429.686C395.756,430.655 400.314,432.897 404.071,436.186C406.271,438.007 407.925,440.349 410.403,442.686C410.946,442.818 411.512,442.818 412.055,442.686C413.707,442.165 415.355,441.386 417.011,440.865L422.792,438.524C426.646,437.224 430.225,435.924 434.079,434.624C438.209,433.063 442.063,431.502 446.192,429.941C447.525,429.441 448.814,428.832 450.046,428.12C449.936,427.209 449.656,426.327 449.22,425.52C447.568,422.92 446.192,420.056 444.265,417.455C440.048,411.03 434.736,405.395 428.573,400.804C424.605,397.886 420.364,395.359 415.909,393.259C412.142,391.644 408.282,390.255 404.35,389.1C402.727,388.629 401.07,388.281 399.395,388.059C396.941,387.5 394.46,387.066 391.962,386.759C387.562,386.499 383.152,386.499 379.023,386.499C376.27,386.499 373.242,387.02 370.489,387.02C368.012,387.02 365.809,388.061 363.607,388.32C358.376,389.101 353.696,390.92 349.016,392.22C347.64,392.74 345.988,393.26 344.616,393.781C341.863,395.081 339.11,396.643 336.357,398.204C332.22,400.431 328.419,403.234 325.07,406.53C322.87,408.871 320.941,411.213 318.738,413.555C315.779,417.027 313.45,420.989 311.855,425.263C310.755,427.863 310.203,430.987 309.377,433.849C308.381,436.959 307.916,440.215 308,443.479L308,510.865C307.18,515.461 307.462,520.187 308.822,524.654Z" style="fill:rgb(31,225,229);fill-rule:nonzero;"/>
        </g>
        <g id="Path_2" transform="matrix(1,0,0,1,1983,109.499)">
            <path d="M35.23,737.606L183.172,737.606C183.666,737.018 184.12,736.398 184.533,735.751L184.904,734.638C185.028,733.401 185.028,732.164 185.028,730.927C184.904,702.848 184.78,674.768 184.657,646.689C184.626,646.503 184.54,646.33 184.41,646.194C184.286,646.07 184.163,645.947 183.173,645.081C182.06,645.081 180.081,644.834 178.101,644.834L45,644.834C43.021,644.834 40.918,644.958 38.939,644.834C37.555,644.607 36.191,644.276 34.857,643.844L34.857,578.531C37.207,576.181 39.929,576.675 42.65,576.675L200.24,576.675C202.219,576.675 204.075,576.428 206.796,576.304C207.167,569.748 206.92,563.687 206.92,557.626L206.92,520.394C206.92,514.085 207.044,507.777 206.92,501.468C206.796,495.407 207.291,489.346 206.673,482.79C204.446,482.419 202.838,481.8 201.107,481.8C199.007,481.8 77.162,481.924 0.099,482.047L0.099,865.014L34.612,865.014L34.612,744.162C34.612,742.183 34.983,740.327 35.23,737.606Z" style="fill:rgb(31,225,229);fill-rule:nonzero;"/>
        </g>
        <g id="Path_3" transform="matrix(1,0,0,1,2606.36,67.292)">
            <path d="M382.484,709.723C381.432,710.685 380.384,711.767 379.196,712.849C379.854,713.57 380.248,714.049 380.774,714.532L391.031,724.632L406.417,739.421C407.338,740.383 408.258,741.465 409.179,742.427C410.757,743.99 412.072,745.914 414.439,746.635C419.699,743.148 424.17,738.935 428.639,734.852C434.638,729.197 439.857,722.768 444.157,715.734C448.143,709.373 451.241,702.495 453.362,695.294C454.94,689.643 456.387,683.872 455.862,677.86C455.599,674.614 455.862,671.247 455.73,668C455.707,665.581 455.487,663.169 455.072,660.786C454.309,655.595 453.077,650.484 451.39,645.516C450.606,642.786 449.684,640.097 448.628,637.46C446.261,632.41 444.028,627.48 440.738,622.791C437.532,618.154 433.923,613.809 429.954,609.805C423.923,604.162 416.988,599.569 409.439,596.218C404.839,594.174 399.97,593.212 395.105,592.13C391.115,591.407 387.053,591.165 383.005,591.409C378.005,591.409 373.011,591.77 368.013,592.009C367.658,591.981 367.301,592.022 366.961,592.129C361.175,593.692 355.261,594.774 349.602,597.059C341.508,600.351 334.3,605.5 328.561,612.089C321.461,620.145 316.861,629.524 313.438,639.383C310.545,647.559 308.704,655.976 306.731,664.392C306.586,665.567 306.367,666.732 306.073,667.879C305.021,670.885 303.837,673.77 302.785,676.779C301.765,679.727 300.205,682.459 298.185,684.835C295.685,687.721 292.925,690.486 288.848,691.207C282.603,692.469 276.13,690.421 271.748,685.796C267.54,681.468 265.962,676.177 265.83,670.406C265.574,664.601 266.607,658.811 268.855,653.453C271.222,647.922 273.984,642.632 278.192,638.183C280.033,636.259 281.743,634.335 283.715,632.291C283.715,631.57 283.583,630.728 283.583,630.367C273.983,619.067 264.646,608.243 255.572,597.542C254.289,597.06 252.836,597.392 251.89,598.384C251.015,599.323 250.045,600.169 248.997,600.909C244.131,604.155 240.449,608.609 236.635,612.809C233.239,616.823 230.203,621.128 227.561,625.674C224.931,630.002 223.353,634.692 221.512,639.261C220.209,642.76 219.283,646.387 218.75,650.082C217.99,653.277 217.549,656.539 217.435,659.821C217.435,666.794 216.777,673.889 217.961,680.862C218.619,685.07 219.276,689.279 220.328,693.362C221.292,696.628 222.433,699.839 223.747,702.981C225.938,708.69 228.903,714.07 232.558,718.972C234.399,721.372 236.503,723.661 238.607,725.946C239.659,727.308 240.849,728.557 242.158,729.673C247.944,733.881 253.468,738.33 260.569,740.614C263.462,741.576 266.224,742.778 269.117,743.62C271.217,744.22 273.588,744.22 275.824,744.702C282.004,746.063 288.388,746.226 294.629,745.183C299.758,744.462 305.149,744.221 309.884,742.057C313.172,742.057 315.933,740.494 318.563,739.171C326.61,735.589 333.888,730.485 339.998,724.141C344.262,719.674 347.971,714.708 351.045,709.352C354.122,704.153 356.508,698.575 358.145,692.759C358.54,691.076 361.433,678.451 362.353,673.882C366.561,655.726 374.978,644.905 382.21,644.905C388.654,644.544 393.125,647.305 396.41,652.119C399.435,656.568 400.487,661.377 400.75,666.427C401.147,674.551 399.661,682.658 396.41,690.114C393.227,697.573 388.478,704.261 382.484,709.723Z" style="fill:rgb(31,225,229);fill-rule:nonzero;"/>
        </g>
        <g id="Path_6" transform="matrix(1,0,0,1,3276.74,-368.259)">
            <path d="M624.049,588.843C626.269,588.103 625.973,600.958 625.973,599.478L625.973,521.942C610.732,510.548 595.195,499.302 579.806,488.057C564.269,476.663 548.732,465.121 533.195,453.728C534.083,452.248 535.563,452.544 536.895,452.544L621.83,452.544C623.162,452.544 624.494,452.988 625.83,451.36C625.83,450.768 625.978,449.732 625.978,448.844L625.978,389.8C626.194,388.364 625.396,386.954 624.054,386.4L368.058,386.4C366.726,390.1 367.466,393.651 367.466,397.2C367.318,400.9 367.466,404.451 367.466,408.15L367.466,441.444C367.614,444.995 367.022,448.695 367.766,452.394C368.847,452.514 369.934,452.563 371.021,452.542L451.221,452.542C452.453,452.468 453.689,452.468 454.921,452.542C455.675,452.744 456.417,452.991 457.141,453.282C457.585,455.058 456.697,455.797 455.661,456.537C447.819,462.16 439.828,467.783 431.986,473.406C423.256,479.621 414.525,485.984 405.795,492.198C398.988,497.081 392.33,501.964 385.523,506.847L371.762,516.613C370.282,517.649 368.802,518.833 367.323,519.868L367.323,599.033C367.323,600.365 366.879,601.696 368.655,603.176C412.455,569.587 456.501,535.948 500.793,502.26C542.073,536 583.06,555.106 624.049,588.843Z" style="fill:rgb(31,225,229);fill-rule:nonzero;"/>
        </g>
        <g id="Path_7" transform="matrix(1,0,0,1,2225.3,-182.62)">
            <path d="M386.621,259.884C387.685,259.884 388.749,259.766 389.93,259.648C390.876,256.575 391.821,253.738 392.649,250.902C393.477,248.066 394.304,245.111 395.131,242.274C396.195,238.846 397.377,235.419 398.559,231.874C399.741,228.21 400.805,224.546 401.987,220.882C402.323,220.225 402.762,219.627 403.287,219.109L456.356,219.109C456.66,219.458 456.9,219.858 457.065,220.291C458.956,225.491 460.847,230.81 462.502,236.011C464.157,241.093 465.575,246.294 467.23,251.376C467.821,253.385 468.412,255.513 469.121,257.522C469.573,258.384 470.087,259.212 470.657,260L521.008,260C522.308,260 523.608,260.118 524.908,260C525.582,259.781 526.22,259.462 526.799,259.054C525.735,255.981 524.908,253.144 523.844,250.308C522.426,246.289 520.889,242.271 519.353,238.252C517.816,234.115 516.28,229.978 514.862,225.842C513.207,221.232 511.789,216.505 510.016,211.895C507.179,204.095 504.343,196.412 501.506,188.729C499.615,183.647 497.842,178.446 495.951,173.364C495.242,171.355 494.178,169.464 493.823,167.336C493.232,164.499 491.814,162.017 490.986,159.181C489.686,154.571 487.677,150.198 486.022,145.589C484.486,141.334 483.304,137.079 481.767,132.824C480.112,128.333 478.339,123.841 476.685,119.35C475.149,115.095 458.365,68.409 457.538,65.926C456.474,62.971 455.411,59.898 454.347,56.826C453.992,55.762 453.52,54.699 453.047,53.635C452.542,53.516 452.028,53.437 451.511,53.399L407.542,53.399C406.499,53.481 405.468,53.68 404.469,53.99C403.878,55.763 403.405,57.181 402.933,58.718C401.869,61.909 400.805,64.982 399.742,68.173C399.033,70.419 398.206,72.664 397.378,74.792C396.196,77.983 395.014,81.174 393.95,84.484C393.123,86.848 392.414,89.212 391.586,91.457C389.813,96.303 388.04,101.149 386.386,105.995C385.913,107.413 385.322,108.832 384.85,110.25C383.786,113.205 382.841,116.16 381.777,118.996C381.186,120.651 380.949,122.305 380.24,123.842C378.822,126.797 378.113,130.106 376.931,133.179C375.986,135.661 375.04,138.143 374.213,140.743L369.249,155.281C368.304,158.118 367.24,160.836 366.176,163.673C365.232,165.82 364.442,168.032 363.812,170.292C363.103,173.601 361.566,176.556 360.621,179.629C359.675,182.584 358.73,185.539 357.666,188.494C356.248,192.631 354.948,196.768 353.411,200.904C351.875,205.159 350.22,209.296 348.683,213.433C347.028,218.279 345.374,223.125 343.719,228.089C341.946,233.171 340.291,238.135 338.4,243.1C337.455,245.346 336.982,247.828 336.154,250.073C335.327,252.555 334.145,254.801 333.317,257.283C333.198,258.027 333.198,258.785 333.317,259.529C334.1,259.655 334.889,259.734 335.681,259.765C352.7,259.884 369.72,259.884 386.621,259.884ZM415.7,166.039C416.646,162.257 417.828,158.475 418.773,154.574C419.719,150.91 420.428,147.246 421.255,143.7C421.373,143.227 421.491,142.873 421.61,142.518C423.383,135.781 425.156,129.044 426.81,122.307C427.519,119.707 427.992,117.107 428.583,114.507C428.874,113.782 429.272,113.104 429.765,112.498C430.238,113.68 430.711,114.389 430.947,115.216C431.893,119.353 432.956,123.49 433.902,127.745C434.729,131.527 435.557,135.309 436.384,138.973C436.739,140.391 437.211,141.81 437.566,143.346C438.512,147.483 439.339,151.738 440.284,155.875C441.348,160.13 442.53,164.385 443.593,168.522C443.829,169.468 443.947,170.413 444.184,171.713C443.002,171.831 442.411,171.949 441.82,171.949L417.943,171.949C416.879,171.949 415.697,172.185 414.988,170.767C415.109,169.176 415.347,167.595 415.7,166.039Z" style="fill:rgb(31,225,229);fill-rule:nonzero;"/>
        </g>
        <g id="Path_5" transform="matrix(1,0,0,1,1983,-107.884)">
            <path d="M0,288.318L8.23,288.318C9.516,288.318 10.93,288.189 11.83,288.189C13.759,286.517 13.116,284.845 13.116,283.174L13.116,185.569C13.116,183.897 12.73,182.225 14.016,180.811L94,180.811C95.543,182.611 95.286,184.411 95.286,186.211L95.286,231.349C95.157,249.224 95.029,267.099 94.9,285.103C95.052,286.211 95.355,287.292 95.8,288.318L166.786,288.318C167.525,288.194 168.255,288.022 168.972,287.804C169.229,287.415 169.404,286.977 169.486,286.518C169.486,192.127 169.529,97.737 169.615,3.346C169.593,2.739 169.506,2.135 169.358,1.546C169.358,1.417 169.229,1.289 169.101,1.16L168.201,0.26C164.086,-0.254 159.328,0.131 154.57,0.131L110.337,0.131C105.579,0.26 100.821,-0.255 96.577,0.26C94,2.831 95.419,5.275 95.419,7.59L95.419,105.581C95.365,106.795 95.193,108.001 94.905,109.181L13.631,109.181C13.254,108.23 12.995,107.237 12.859,106.223C12.859,104.165 13.245,102.108 13.245,99.923L13.245,3.732C13.361,2.085 12.356,0.552 10.8,0L0,0L0,288.318Z" style="fill:rgb(31,225,229);fill-rule:nonzero;"/>
        </g>
        <g id="Group_16-2" transform="matrix(1,0,0,1,3374,-108)">
            <g id="Path_50-2" transform="matrix(1,0,0,1,76.651,190.551)">
                <path d="M58.618,106.788L60.195,100.797L51.681,98.59L54.2,90.077L47.9,88.5L45.69,96.7L37.49,94.493L35.6,100.482L44.113,103L41.591,111.2L47.897,112.777L50.104,104.577L58.618,106.788Z" style="fill:rgb(211,220,0);fill-rule:nonzero;"/>
            </g>
            <g id="Path_51-2" transform="matrix(1,0,0,1,98.613,32.727)">
                <path d="M68.5,33.8L70.077,27.809L61.877,25.287L64.084,17.087L58.1,15.2L55.578,23.713L47.378,21.506L45.8,27.5L54,29.7L51.793,38.213L57.784,39.79L59.991,31.59L68.5,33.8Z" style="fill:rgb(211,220,0);fill-rule:nonzero;"/>
            </g>
            <g id="Path_52-2" transform="matrix(1,0,0,1,229.737,0)">
                <path d="M129.4,18.288L131.292,12.297L122.779,10.09L125.3,1.577L119,0L116.79,8.2L108.277,5.993L106.7,12.3L115.213,14.507L112.69,22.707L119,24.594L121.207,16.081L129.4,18.288Z" style="fill:rgb(211,220,0);fill-rule:nonzero;"/>
            </g>
            <g id="Path_53-2" transform="matrix(1,0,0,1,115.192,104.641)">
                <path d="M76.2,66.888L53.5,66.888L64.851,48.6L76.2,66.888Z" style="fill:rgb(211,220,0);fill-rule:nonzero;"/>
            </g>
            <g id="Path_54-2" transform="matrix(1,0,0,1,284.857,43.278)">
                <path d="M155,38.388L132.3,38.388L143.651,20.1L155,38.388Z" style="fill:rgb(211,220,0);fill-rule:nonzero;"/>
            </g>
            <g id="Path_55-2" transform="matrix(1,0,0,1,177.201,9.474)">
                <path d="M101.849,13.859L82.3,25.841L82.615,4.4L101.849,13.859Z" style="fill:rgb(211,220,0);fill-rule:nonzero;"/>
            </g>
            <g id="Path_56-2" transform="matrix(1,0,0,1,61.148,151.579)">
                <path d="M51.1,88.373L28.4,88.373L39.751,70.4L51.1,88.373Z" style="fill:rgb(211,220,0);fill-rule:nonzero;"/>
            </g>
            <g id="Ellipse_1-2" transform="matrix(1,0,0,1,229.231,98.377)">
                <circle cx="11.036" cy="11.036" r="11.036" style="fill:rgb(211,220,0);"/>
            </g>
            <g id="Ellipse_2-3" transform="matrix(1,0,0,1,337.698,87.341)">
                <circle cx="11.036" cy="11.036" r="11.036" style="fill:rgb(211,220,0);"/>
            </g>
            <g id="Ellipse_3-2" transform="matrix(1,0,0,1,0,98.377)">
                <circle cx="11.036" cy="11.036" r="11.036" style="fill:rgb(211,220,0);"/>
            </g>
            <g id="Path_57-2" transform="matrix(1,0,0,1,183.876,121.866)">
                <path d="M85.4,103.9L94.229,97.594L87.922,85.609L98.958,77.726L92.652,65.744L106.211,56.6L109.679,61.645L100.85,67.951L107.472,79.933L96.121,87.5L102.743,99.8L89.185,108.944L85.4,103.9Z" style="fill:rgb(211,220,0);fill-rule:nonzero;"/>
            </g>
            <g id="Path_58-2" transform="matrix(1,0,0,1,284.426,139.737)">
                <path d="M132.1,112.2L140.929,106.209L134.308,94.227L145.659,86.344L139.038,74.362L152.6,64.9L156.384,69.945L147.555,76.251L153.861,88.233L142.825,96.116L149.131,108.098L135.573,117.557L132.1,112.2Z" style="fill:rgb(211,220,0);fill-rule:nonzero;"/>
            </g>
            <g id="Path_59-2" transform="matrix(1,0,0,1,30.144,26.483)">
                <path d="M43.639,55.182L43.008,44.461L29.134,43.515L28.5,29.957L14.942,29.326L14,12.615L20.306,12.3L20.937,23.336L34.495,23.967L35.126,37.525L49,38.471L49.946,54.871L43.639,55.182Z" style="fill:rgb(211,220,0);fill-rule:nonzero;"/>
            </g>
            <g id="Path_60-2" transform="matrix(1,0,0,1,130.934,164.067)">
                <path d="M74.964,103.632C69.065,103.722 63.727,100.036 61.721,94.488C60.405,90.907 60.518,86.952 62.036,83.452C63.571,80.067 66.418,77.448 69.919,76.2L72.126,82.191C70.178,82.931 68.593,84.402 67.712,86.291C66.825,88.169 66.712,90.322 67.397,92.282C68.136,94.232 69.61,95.819 71.5,96.7C73.378,97.587 75.531,97.7 77.491,97.015L79.694,103C78.142,103.365 76.558,103.577 74.964,103.632Z" style="fill:rgb(211,220,0);fill-rule:nonzero;"/>
            </g>
            <g id="Path_61-2" transform="matrix(1,0,0,1,185.839,189.474)">
                <path d="M100.464,115.432C94.565,115.522 89.227,111.836 87.221,106.288C85.905,102.707 86.018,98.752 87.536,95.252C89.071,91.867 91.918,89.248 95.419,88L97.626,93.991C95.678,94.731 94.093,96.202 93.212,98.091C92.325,99.969 92.212,102.122 92.897,104.082C93.636,106.032 95.11,107.619 97,108.5C98.878,109.387 101.031,109.5 102.991,108.815L105.198,114.806C103.676,115.323 102.068,115.536 100.464,115.432Z" style="fill:rgb(211,220,0);fill-rule:nonzero;"/>
            </g>
            <g id="Path_62-2" transform="matrix(1,0,0,1,227.584,152.225)">
                <path d="M133.763,75.745C133.388,77.811 132.523,79.758 131.241,81.421C129.111,84.494 125.799,86.552 122.1,87.1C118.335,87.707 114.479,86.8 111.379,84.578C108.304,82.446 106.246,79.132 105.7,75.43L112.006,74.484C112.643,78.246 115.935,81.027 119.751,81.027C124.06,81.027 127.606,77.481 127.606,73.172C127.606,72.66 127.556,72.149 127.456,71.646L133.762,70.7C134.078,72.367 134.079,74.078 133.763,75.745Z" style="fill:rgb(211,220,0);fill-rule:nonzero;"/>
            </g>
            <g id="Path_63-2" transform="matrix(1,0,0,1,48.04,92.153)">
                <path d="M36.464,70.232C30.565,70.322 25.227,66.636 23.221,61.088C21.905,57.507 22.018,53.552 23.536,50.052C25.071,46.667 27.918,44.048 31.419,42.8L33.626,48.791C31.678,49.531 30.093,51.002 29.212,52.891C28.325,54.769 28.212,56.922 28.897,58.882C29.636,60.832 31.11,62.419 33,63.3C34.878,64.187 37.031,64.3 38.991,63.615L41.194,69.6C39.65,70.008 38.061,70.22 36.464,70.232Z" style="fill:rgb(211,220,0);fill-rule:nonzero;"/>
            </g>
        </g>
        <g id="Group_16-3" transform="matrix(1,0,0,1,3374,-108)">
            <g id="Path_50-3" transform="matrix(1,0,0,1,76.651,190.551)">
                <path d="M58.618,106.788L60.195,100.797L51.681,98.59L54.2,90.077L47.9,88.5L45.69,96.7L37.49,94.493L35.6,100.482L44.113,103L41.591,111.2L47.897,112.777L50.104,104.577L58.618,106.788Z" style="fill:rgb(211,220,0);fill-rule:nonzero;"/>
            </g>
            <g id="Path_51-3" transform="matrix(1,0,0,1,98.613,32.727)">
                <path d="M68.5,33.8L70.077,27.809L61.877,25.287L64.084,17.087L58.1,15.2L55.578,23.713L47.378,21.506L45.8,27.5L54,29.7L51.793,38.213L57.784,39.79L59.991,31.59L68.5,33.8Z" style="fill:rgb(211,220,0);fill-rule:nonzero;"/>
            </g>
            <g id="Path_52-3" transform="matrix(1,0,0,1,229.737,0)">
                <path d="M129.4,18.288L131.292,12.297L122.779,10.09L125.3,1.577L119,0L116.79,8.2L108.277,5.993L106.7,12.3L115.213,14.507L112.69,22.707L119,24.594L121.207,16.081L129.4,18.288Z" style="fill:rgb(211,220,0);fill-rule:nonzero;"/>
            </g>
            <g id="Path_53-3" transform="matrix(1,0,0,1,115.192,104.641)">
                <path d="M76.2,66.888L53.5,66.888L64.851,48.6L76.2,66.888Z" style="fill:rgb(211,220,0);fill-rule:nonzero;"/>
            </g>
            <g id="Path_54-3" transform="matrix(1,0,0,1,284.857,43.278)">
                <path d="M155,38.388L132.3,38.388L143.651,20.1L155,38.388Z" style="fill:rgb(211,220,0);fill-rule:nonzero;"/>
            </g>
            <g id="Path_55-3" transform="matrix(1,0,0,1,177.201,9.474)">
                <path d="M101.849,13.859L82.3,25.841L82.615,4.4L101.849,13.859Z" style="fill:rgb(211,220,0);fill-rule:nonzero;"/>
            </g>
            <g id="Path_56-3" transform="matrix(1,0,0,1,61.148,151.579)">
                <path d="M51.1,88.373L28.4,88.373L39.751,70.4L51.1,88.373Z" style="fill:rgb(211,220,0);fill-rule:nonzero;"/>
            </g>
            <g id="Ellipse_1-3" transform="matrix(1,0,0,1,229.231,98.377)">
                <circle cx="11.036" cy="11.036" r="11.036" style="fill:rgb(211,220,0);"/>
            </g>
            <g id="Ellipse_2-4" transform="matrix(1,0,0,1,337.698,87.341)">
                <circle cx="11.036" cy="11.036" r="11.036" style="fill:rgb(211,220,0);"/>
            </g>
            <g id="Ellipse_3-3" transform="matrix(1,0,0,1,0,98.377)">
                <circle cx="11.036" cy="11.036" r="11.036" style="fill:rgb(211,220,0);"/>
            </g>
            <g id="Path_57-3" transform="matrix(1,0,0,1,183.876,121.866)">
                <path d="M85.4,103.9L94.229,97.594L87.922,85.609L98.958,77.726L92.652,65.744L106.211,56.6L109.679,61.645L100.85,67.951L107.472,79.933L96.121,87.5L102.743,99.8L89.185,108.944L85.4,103.9Z" style="fill:rgb(211,220,0);fill-rule:nonzero;"/>
            </g>
            <g id="Path_58-3" transform="matrix(1,0,0,1,284.426,139.737)">
                <path d="M132.1,112.2L140.929,106.209L134.308,94.227L145.659,86.344L139.038,74.362L152.6,64.9L156.384,69.945L147.555,76.251L153.861,88.233L142.825,96.116L149.131,108.098L135.573,117.557L132.1,112.2Z" style="fill:rgb(211,220,0);fill-rule:nonzero;"/>
            </g>
            <g id="Path_59-3" transform="matrix(1,0,0,1,30.144,26.483)">
                <path d="M43.639,55.182L43.008,44.461L29.134,43.515L28.5,29.957L14.942,29.326L14,12.615L20.306,12.3L20.937,23.336L34.495,23.967L35.126,37.525L49,38.471L49.946,54.871L43.639,55.182Z" style="fill:rgb(211,220,0);fill-rule:nonzero;"/>
            </g>
            <g id="Path_60-3" transform="matrix(1,0,0,1,130.934,164.067)">
                <path d="M74.964,103.632C69.065,103.722 63.727,100.036 61.721,94.488C60.405,90.907 60.518,86.952 62.036,83.452C63.571,80.067 66.418,77.448 69.919,76.2L72.126,82.191C70.178,82.931 68.593,84.402 67.712,86.291C66.825,88.169 66.712,90.322 67.397,92.282C68.136,94.232 69.61,95.819 71.5,96.7C73.378,97.587 75.531,97.7 77.491,97.015L79.694,103C78.142,103.365 76.558,103.577 74.964,103.632Z" style="fill:rgb(211,220,0);fill-rule:nonzero;"/>
            </g>
            <g id="Path_61-3" transform="matrix(1,0,0,1,185.839,189.474)">
                <path d="M100.464,115.432C94.565,115.522 89.227,111.836 87.221,106.288C85.905,102.707 86.018,98.752 87.536,95.252C89.071,91.867 91.918,89.248 95.419,88L97.626,93.991C95.678,94.731 94.093,96.202 93.212,98.091C92.325,99.969 92.212,102.122 92.897,104.082C93.636,106.032 95.11,107.619 97,108.5C98.878,109.387 101.031,109.5 102.991,108.815L105.198,114.806C103.676,115.323 102.068,115.536 100.464,115.432Z" style="fill:rgb(211,220,0);fill-rule:nonzero;"/>
            </g>
            <g id="Path_62-3" transform="matrix(1,0,0,1,227.584,152.225)">
                <path d="M133.763,75.745C133.388,77.811 132.523,79.758 131.241,81.421C129.111,84.494 125.799,86.552 122.1,87.1C118.335,87.707 114.479,86.8 111.379,84.578C108.304,82.446 106.246,79.132 105.7,75.43L112.006,74.484C112.643,78.246 115.935,81.027 119.751,81.027C124.06,81.027 127.606,77.481 127.606,73.172C127.606,72.66 127.556,72.149 127.456,71.646L133.762,70.7C134.078,72.367 134.079,74.078 133.763,75.745Z" style="fill:rgb(211,220,0);fill-rule:nonzero;"/>
            </g>
            <g id="Path_63-3" transform="matrix(1,0,0,1,48.04,92.153)">
                <path d="M36.464,70.232C30.565,70.322 25.227,66.636 23.221,61.088C21.905,57.507 22.018,53.552 23.536,50.052C25.071,46.667 27.918,44.048 31.419,42.8L33.626,48.791C31.678,49.531 30.093,51.002 29.212,52.891C28.325,54.769 28.212,56.922 28.897,58.882C29.636,60.832 31.11,62.419 33,63.3C34.878,64.187 37.031,64.3 38.991,63.615L41.194,69.6C39.65,70.008 38.061,70.22 36.464,70.232Z" style="fill:rgb(211,220,0);fill-rule:nonzero;"/>
            </g>
        </g>
        <g id="Group_16-4" transform="matrix(1,0,0,1,2776,771)">
            <g id="Path_50-4" transform="matrix(1,0,0,1,76.651,190.551)">
                <path d="M58.618,106.788L60.195,100.797L51.681,98.59L54.2,90.077L47.9,88.5L45.69,96.7L37.49,94.493L35.6,100.482L44.113,103L41.591,111.2L47.897,112.777L50.104,104.577L58.618,106.788Z" style="fill:rgb(211,220,0);fill-rule:nonzero;"/>
            </g>
            <g id="Path_51-4" transform="matrix(1,0,0,1,98.613,32.727)">
                <path d="M68.5,33.8L70.077,27.809L61.877,25.287L64.084,17.087L58.1,15.2L55.578,23.713L47.378,21.506L45.8,27.5L54,29.7L51.793,38.213L57.784,39.79L59.991,31.59L68.5,33.8Z" style="fill:rgb(211,220,0);fill-rule:nonzero;"/>
            </g>
            <g id="Path_52-4" transform="matrix(1,0,0,1,229.737,0)">
                <path d="M129.4,18.288L131.292,12.297L122.779,10.09L125.3,1.577L119,0L116.79,8.2L108.277,5.993L106.7,12.3L115.213,14.507L112.69,22.707L119,24.594L121.207,16.081L129.4,18.288Z" style="fill:rgb(211,220,0);fill-rule:nonzero;"/>
            </g>
            <g id="Path_53-4" transform="matrix(1,0,0,1,115.192,104.641)">
                <path d="M76.2,66.888L53.5,66.888L64.851,48.6L76.2,66.888Z" style="fill:rgb(211,220,0);fill-rule:nonzero;"/>
            </g>
            <g id="Path_54-4" transform="matrix(1,0,0,1,284.857,43.278)">
                <path d="M155,38.388L132.3,38.388L143.651,20.1L155,38.388Z" style="fill:rgb(211,220,0);fill-rule:nonzero;"/>
            </g>
            <g id="Path_55-4" transform="matrix(1,0,0,1,177.201,9.474)">
                <path d="M101.849,13.859L82.3,25.841L82.615,4.4L101.849,13.859Z" style="fill:rgb(211,220,0);fill-rule:nonzero;"/>
            </g>
            <g id="Path_56-4" transform="matrix(1,0,0,1,61.148,151.579)">
                <path d="M51.1,88.373L28.4,88.373L39.751,70.4L51.1,88.373Z" style="fill:rgb(211,220,0);fill-rule:nonzero;"/>
            </g>
            <g id="Ellipse_1-4" transform="matrix(1,0,0,1,229.231,98.377)">
                <circle cx="11.036" cy="11.036" r="11.036" style="fill:rgb(211,220,0);"/>
            </g>
            <g id="Ellipse_2-5" transform="matrix(1,0,0,1,337.698,87.341)">
                <circle cx="11.036" cy="11.036" r="11.036" style="fill:rgb(211,220,0);"/>
            </g>
            <g id="Ellipse_3-4" transform="matrix(1,0,0,1,0,98.377)">
                <circle cx="11.036" cy="11.036" r="11.036" style="fill:rgb(211,220,0);"/>
            </g>
            <g id="Path_57-4" transform="matrix(1,0,0,1,183.876,121.866)">
                <path d="M85.4,103.9L94.229,97.594L87.922,85.609L98.958,77.726L92.652,65.744L106.211,56.6L109.679,61.645L100.85,67.951L107.472,79.933L96.121,87.5L102.743,99.8L89.185,108.944L85.4,103.9Z" style="fill:rgb(211,220,0);fill-rule:nonzero;"/>
            </g>
            <g id="Path_58-4" transform="matrix(1,0,0,1,284.426,139.737)">
                <path d="M132.1,112.2L140.929,106.209L134.308,94.227L145.659,86.344L139.038,74.362L152.6,64.9L156.384,69.945L147.555,76.251L153.861,88.233L142.825,96.116L149.131,108.098L135.573,117.557L132.1,112.2Z" style="fill:rgb(211,220,0);fill-rule:nonzero;"/>
            </g>
            <g id="Path_59-4" transform="matrix(1,0,0,1,30.144,26.483)">
                <path d="M43.639,55.182L43.008,44.461L29.134,43.515L28.5,29.957L14.942,29.326L14,12.615L20.306,12.3L20.937,23.336L34.495,23.967L35.126,37.525L49,38.471L49.946,54.871L43.639,55.182Z" style="fill:rgb(211,220,0);fill-rule:nonzero;"/>
            </g>
            <g id="Path_60-4" transform="matrix(1,0,0,1,130.934,164.067)">
                <path d="M74.964,103.632C69.065,103.722 63.727,100.036 61.721,94.488C60.405,90.907 60.518,86.952 62.036,83.452C63.571,80.067 66.418,77.448 69.919,76.2L72.126,82.191C70.178,82.931 68.593,84.402 67.712,86.291C66.825,88.169 66.712,90.322 67.397,92.282C68.136,94.232 69.61,95.819 71.5,96.7C73.378,97.587 75.531,97.7 77.491,97.015L79.694,103C78.142,103.365 76.558,103.577 74.964,103.632Z" style="fill:rgb(211,220,0);fill-rule:nonzero;"/>
            </g>
            <g id="Path_61-4" transform="matrix(1,0,0,1,185.839,189.474)">
                <path d="M100.464,115.432C94.565,115.522 89.227,111.836 87.221,106.288C85.905,102.707 86.018,98.752 87.536,95.252C89.071,91.867 91.918,89.248 95.419,88L97.626,93.991C95.678,94.731 94.093,96.202 93.212,98.091C92.325,99.969 92.212,102.122 92.897,104.082C93.636,106.032 95.11,107.619 97,108.5C98.878,109.387 101.031,109.5 102.991,108.815L105.198,114.806C103.676,115.323 102.068,115.536 100.464,115.432Z" style="fill:rgb(211,220,0);fill-rule:nonzero;"/>
            </g>
            <g id="Path_62-4" transform="matrix(1,0,0,1,227.584,152.225)">
                <path d="M133.763,75.745C133.388,77.811 132.523,79.758 131.241,81.421C129.111,84.494 125.799,86.552 122.1,87.1C118.335,87.707 114.479,86.8 111.379,84.578C108.304,82.446 106.246,79.132 105.7,75.43L112.006,74.484C112.643,78.246 115.935,81.027 119.751,81.027C124.06,81.027 127.606,77.481 127.606,73.172C127.606,72.66 127.556,72.149 127.456,71.646L133.762,70.7C134.078,72.367 134.079,74.078 133.763,75.745Z" style="fill:rgb(211,220,0);fill-rule:nonzero;"/>
            </g>
            <g id="Path_63-4" transform="matrix(1,0,0,1,48.04,92.153)">
                <path d="M36.464,70.232C30.565,70.322 25.227,66.636 23.221,61.088C21.905,57.507 22.018,53.552 23.536,50.052C25.071,46.667 27.918,44.048 31.419,42.8L33.626,48.791C31.678,49.531 30.093,51.002 29.212,52.891C28.325,54.769 28.212,56.922 28.897,58.882C29.636,60.832 31.11,62.419 33,63.3C34.878,64.187 37.031,64.3 38.991,63.615L41.194,69.6C39.65,70.008 38.061,70.22 36.464,70.232Z" style="fill:rgb(211,220,0);fill-rule:nonzero;"/>
            </g>
        </g>
        <g id="Group_16-5" transform="matrix(1,0,0,1,2603,-287)">
            <g id="Path_50-5" transform="matrix(1,0,0,1,76.651,190.551)">
                <path d="M58.618,106.788L60.195,100.797L51.681,98.59L54.2,90.077L47.9,88.5L45.69,96.7L37.49,94.493L35.6,100.482L44.113,103L41.591,111.2L47.897,112.777L50.104,104.577L58.618,106.788Z" style="fill:rgb(211,220,0);fill-rule:nonzero;"/>
            </g>
            <g id="Path_56-5" transform="matrix(1,0,0,1,61.148,151.579)">
                <path d="M51.1,88.373L28.4,88.373L39.751,70.4L51.1,88.373Z" style="fill:rgb(211,220,0);fill-rule:nonzero;"/>
            </g>
            <g id="Path_57-5" transform="matrix(1,0,0,1,183.876,121.866)">
                <path d="M85.4,103.9L94.229,97.594L87.922,85.609L98.958,77.726L92.652,65.744L106.211,56.6L109.679,61.645L100.85,67.951L107.472,79.933L96.121,87.5L102.743,99.8L89.185,108.944L85.4,103.9Z" style="fill:rgb(211,220,0);fill-rule:nonzero;"/>
            </g>
            <g id="Path_58-5" transform="matrix(1,0,0,1,284.426,139.737)">
                <path d="M132.1,112.2L140.929,106.209L134.308,94.227L145.659,86.344L139.038,74.362L152.6,64.9L156.384,69.945L147.555,76.251L153.861,88.233L142.825,96.116L149.131,108.098L135.573,117.557L132.1,112.2Z" style="fill:rgb(211,220,0);fill-rule:nonzero;"/>
            </g>
            <g id="Path_60-5" transform="matrix(1,0,0,1,130.934,164.067)">
                <path d="M74.964,103.632C69.065,103.722 63.727,100.036 61.721,94.488C60.405,90.907 60.518,86.952 62.036,83.452C63.571,80.067 66.418,77.448 69.919,76.2L72.126,82.191C70.178,82.931 68.593,84.402 67.712,86.291C66.825,88.169 66.712,90.322 67.397,92.282C68.136,94.232 69.61,95.819 71.5,96.7C73.378,97.587 75.531,97.7 77.491,97.015L79.694,103C78.142,103.365 76.558,103.577 74.964,103.632Z" style="fill:rgb(211,220,0);fill-rule:nonzero;"/>
            </g>
            <g id="Path_61-5" transform="matrix(1,0,0,1,185.839,189.474)">
                <path d="M100.464,115.432C94.565,115.522 89.227,111.836 87.221,106.288C85.905,102.707 86.018,98.752 87.536,95.252C89.071,91.867 91.918,89.248 95.419,88L97.626,93.991C95.678,94.731 94.093,96.202 93.212,98.091C92.325,99.969 92.212,102.122 92.897,104.082C93.636,106.032 95.11,107.619 97,108.5C98.878,109.387 101.031,109.5 102.991,108.815L105.198,114.806C103.676,115.323 102.068,115.536 100.464,115.432Z" style="fill:rgb(211,220,0);fill-rule:nonzero;"/>
            </g>
            <g id="Path_62-5" transform="matrix(1,0,0,1,227.584,152.225)">
                <path d="M133.763,75.745C133.388,77.811 132.523,79.758 131.241,81.421C129.111,84.494 125.799,86.552 122.1,87.1C118.335,87.707 114.479,86.8 111.379,84.578C108.304,82.446 106.246,79.132 105.7,75.43L112.006,74.484C112.643,78.246 115.935,81.027 119.751,81.027C124.06,81.027 127.606,77.481 127.606,73.172C127.606,72.66 127.556,72.149 127.456,71.646L133.762,70.7C134.078,72.367 134.079,74.078 133.763,75.745Z" style="fill:rgb(211,220,0);fill-rule:nonzero;"/>
            </g>
        </g>
        <g id="Group_16-6" transform="matrix(1,0,0,1,1931,755)">
            <g id="Path_50-6" transform="matrix(1,0,0,1,76.651,190.551)">
                <path d="M58.618,106.788L60.195,100.797L51.681,98.59L54.2,90.077L47.9,88.5L45.69,96.7L37.49,94.493L35.6,100.482L44.113,103L41.591,111.2L47.897,112.777L50.104,104.577L58.618,106.788Z" style="fill:rgb(211,220,0);fill-rule:nonzero;"/>
            </g>
            <g id="Path_51-6" transform="matrix(1,0,0,1,98.613,32.727)">
                <path d="M68.5,33.8L70.077,27.809L61.877,25.287L64.084,17.087L58.1,15.2L55.578,23.713L47.378,21.506L45.8,27.5L54,29.7L51.793,38.213L57.784,39.79L59.991,31.59L68.5,33.8Z" style="fill:rgb(211,220,0);fill-rule:nonzero;"/>
            </g>
            <g id="Path_52-6" transform="matrix(1,0,0,1,229.737,0)">
                <path d="M129.4,18.288L131.292,12.297L122.779,10.09L125.3,1.577L119,0L116.79,8.2L108.277,5.993L106.7,12.3L115.213,14.507L112.69,22.707L119,24.594L121.207,16.081L129.4,18.288Z" style="fill:rgb(211,220,0);fill-rule:nonzero;"/>
            </g>
            <g id="Path_53-6" transform="matrix(1,0,0,1,115.192,104.641)">
                <path d="M76.2,66.888L53.5,66.888L64.851,48.6L76.2,66.888Z" style="fill:rgb(211,220,0);fill-rule:nonzero;"/>
            </g>
            <g id="Path_54-6" transform="matrix(1,0,0,1,284.857,43.278)">
                <path d="M155,38.388L132.3,38.388L143.651,20.1L155,38.388Z" style="fill:rgb(211,220,0);fill-rule:nonzero;"/>
            </g>
            <g id="Path_55-6" transform="matrix(1,0,0,1,177.201,9.474)">
                <path d="M101.849,13.859L82.3,25.841L82.615,4.4L101.849,13.859Z" style="fill:rgb(211,220,0);fill-rule:nonzero;"/>
            </g>
            <g id="Path_56-6" transform="matrix(1,0,0,1,61.148,151.579)">
                <path d="M51.1,88.373L28.4,88.373L39.751,70.4L51.1,88.373Z" style="fill:rgb(211,220,0);fill-rule:nonzero;"/>
            </g>
            <g id="Ellipse_1-6" transform="matrix(1,0,0,1,229.231,98.377)">
                <circle cx="11.036" cy="11.036" r="11.036" style="fill:rgb(211,220,0);"/>
            </g>
            <g id="Ellipse_2-7" transform="matrix(1,0,0,1,337.698,87.341)">
                <circle cx="11.036" cy="11.036" r="11.036" style="fill:rgb(211,220,0);"/>
            </g>
            <g id="Path_57-6" transform="matrix(1,0,0,1,183.876,121.866)">
                <path d="M85.4,103.9L94.229,97.594L87.922,85.609L98.958,77.726L92.652,65.744L106.211,56.6L109.679,61.645L100.85,67.951L107.472,79.933L96.121,87.5L102.743,99.8L89.185,108.944L85.4,103.9Z" style="fill:rgb(211,220,0);fill-rule:nonzero;"/>
            </g>
            <g id="Path_58-6" transform="matrix(1,0,0,1,284.426,139.737)">
                <path d="M132.1,112.2L140.929,106.209L134.308,94.227L145.659,86.344L139.038,74.362L152.6,64.9L156.384,69.945L147.555,76.251L153.861,88.233L142.825,96.116L149.131,108.098L135.573,117.557L132.1,112.2Z" style="fill:rgb(211,220,0);fill-rule:nonzero;"/>
            </g>
            <g id="Path_59-6" transform="matrix(1,0,0,1,30.144,26.483)">
                <path d="M43.639,55.182L43.008,44.461L29.134,43.515L28.5,29.957L14.942,29.326L14,12.615L20.306,12.3L20.937,23.336L34.495,23.967L35.126,37.525L49,38.471L49.946,54.871L43.639,55.182Z" style="fill:rgb(211,220,0);fill-rule:nonzero;"/>
            </g>
            <g id="Path_60-6" transform="matrix(1,0,0,1,130.934,164.067)">
                <path d="M74.964,103.632C69.065,103.722 63.727,100.036 61.721,94.488C60.405,90.907 60.518,86.952 62.036,83.452C63.571,80.067 66.418,77.448 69.919,76.2L72.126,82.191C70.178,82.931 68.593,84.402 67.712,86.291C66.825,88.169 66.712,90.322 67.397,92.282C68.136,94.232 69.61,95.819 71.5,96.7C73.378,97.587 75.531,97.7 77.491,97.015L79.694,103C78.142,103.365 76.558,103.577 74.964,103.632Z" style="fill:rgb(211,220,0);fill-rule:nonzero;"/>
            </g>
            <g id="Path_61-6" transform="matrix(1,0,0,1,185.839,189.474)">
                <path d="M100.464,115.432C94.565,115.522 89.227,111.836 87.221,106.288C85.905,102.707 86.018,98.752 87.536,95.252C89.071,91.867 91.918,89.248 95.419,88L97.626,93.991C95.678,94.731 94.093,96.202 93.212,98.091C92.325,99.969 92.212,102.122 92.897,104.082C93.636,106.032 95.11,107.619 97,108.5C98.878,109.387 101.031,109.5 102.991,108.815L105.198,114.806C103.676,115.323 102.068,115.536 100.464,115.432Z" style="fill:rgb(211,220,0);fill-rule:nonzero;"/>
            </g>
            <g id="Path_62-6" transform="matrix(1,0,0,1,227.584,152.225)">
                <path d="M133.763,75.745C133.388,77.811 132.523,79.758 131.241,81.421C129.111,84.494 125.799,86.552 122.1,87.1C118.335,87.707 114.479,86.8 111.379,84.578C108.304,82.446 106.246,79.132 105.7,75.43L112.006,74.484C112.643,78.246 115.935,81.027 119.751,81.027C124.06,81.027 127.606,77.481 127.606,73.172C127.606,72.66 127.556,72.149 127.456,71.646L133.762,70.7C134.078,72.367 134.079,74.078 133.763,75.745Z" style="fill:rgb(211,220,0);fill-rule:nonzero;"/>
            </g>
            <g id="Path_63-6" transform="matrix(1,0,0,1,48.04,92.153)">
                <path d="M36.464,70.232C30.565,70.322 25.227,66.636 23.221,61.088C21.905,57.507 22.018,53.552 23.536,50.052C25.071,46.667 27.918,44.048 31.419,42.8L33.626,48.791C31.678,49.531 30.093,51.002 29.212,52.891C28.325,54.769 28.212,56.922 28.897,58.882C29.636,60.832 31.11,62.419 33,63.3C34.878,64.187 37.031,64.3 38.991,63.615L41.194,69.6C39.65,70.008 38.061,70.22 36.464,70.232Z" style="fill:rgb(211,220,0);fill-rule:nonzero;"/>
            </g>
        </g>
        <g transform="matrix(1,0,0,1,3569,867)">
            <path d="M152.4,4.8C231.2,4.8 280,-34 280,-117.2L280,-286L197.2,-286L197.2,-120.8C197.2,-78 186.4,-59.6 152.4,-59.6C117.6,-59.6 107.6,-79.2 107.6,-119.6L107.6,-286L25.6,-286L25.6,-116C25.6,-36 71.6,4.8 152.4,4.8Z" style="fill:rgb(31,225,229);fill-rule:nonzero;"/>
        </g>
    </g>
</svg>
