<svg xmlns="http://www.w3.org/2000/svg" xmlns:xlink="http://www.w3.org/1999/xlink" viewBox="1983 -108 1920 1235">
  <defs>
    <style>
      .cls-1 {
        clip-path: url(#clip-Web_1920_1);
      }

      .cls-2 {
        fill: #d3dc00;
      }

      .cls-3, .cls-4 {
        fill: #1fe1e5;
      }

      .cls-4 {
        font-size: 400px;
        font-family: Graphik-Black, Graphik;
        font-weight: 800;
      }
    </style>
    <clipPath id="clip-Web_1920_1">
      <rect x="1983" y="-108" width="1920" height="1235"/>
    </clipPath>
  </defs>
  <g id="Web_1920_1" data-name="Web 1920 – 1" class="cls-1">
    <g id="Group_17" data-name="Group 17" transform="translate(1740 -499)">
      <g id="Group_16" data-name="Group 16" transform="translate(192 517)">
        <path id="Path_50" data-name="Path 50" class="cls-2" d="M58.618,106.788l1.577-5.991L51.681,98.59,54.2,90.077,47.9,88.5,45.69,96.7l-8.2-2.207L35.6,100.482,44.113,103l-2.522,8.2,6.306,1.577,2.207-8.2Z" transform="translate(76.651 190.551)"/>
        <path id="Path_51" data-name="Path 51" class="cls-2" d="M68.5,33.8l1.577-5.991-8.2-2.522,2.207-8.2L58.1,15.2l-2.522,8.513-8.2-2.207L45.8,27.5,54,29.7l-2.207,8.513,5.991,1.577,2.207-8.2Z" transform="translate(98.613 32.727)"/>
        <path id="Path_52" data-name="Path 52" class="cls-2" d="M129.4,18.288l1.892-5.991-8.513-2.207L125.3,1.577,119,0,116.79,8.2l-8.513-2.207L106.7,12.3l8.513,2.207-2.523,8.2L119,24.594l2.207-8.513Z" transform="translate(229.737)"/>
        <g id="Group_2" data-name="Group 2" transform="translate(168.692 153.241)">
          <path id="Path_53" data-name="Path 53" class="cls-2" d="M76.2,66.888H53.5L64.851,48.6Z" transform="translate(-53.5 -48.6)"/>
        </g>
        <g id="Group_3" data-name="Group 3" transform="translate(417.157 63.378)">
          <path id="Path_54" data-name="Path 54" class="cls-2" d="M155,38.388H132.3L143.651,20.1Z" transform="translate(-132.3 -20.1)"/>
        </g>
        <g id="Group_4" data-name="Group 4" transform="translate(259.501 13.874)">
          <path id="Path_55" data-name="Path 55" class="cls-2" d="M101.849,13.859,82.3,25.841,82.615,4.4Z" transform="translate(-82.3 -4.4)"/>
        </g>
        <g id="Group_5" data-name="Group 5" transform="translate(89.548 221.979)">
          <path id="Path_56" data-name="Path 56" class="cls-2" d="M51.1,88.373H28.4L39.751,70.4Z" transform="translate(-28.4 -70.4)"/>
        </g>
        <g id="Group_6" data-name="Group 6" transform="translate(229.231 98.377)">
          <circle id="Ellipse_1" data-name="Ellipse 1" class="cls-2" cx="11.036" cy="11.036" r="11.036"/>
        </g>
        <g id="Group_7" data-name="Group 7" transform="translate(337.698 87.341)">
          <circle id="Ellipse_2" data-name="Ellipse 2" class="cls-2" cx="11.036" cy="11.036" r="11.036"/>
        </g>
        <g id="Group_8" data-name="Group 8" transform="translate(0 98.377)">
          <circle id="Ellipse_3" data-name="Ellipse 3" class="cls-2" cx="11.036" cy="11.036" r="11.036"/>
        </g>
        <g id="Group_9" data-name="Group 9" transform="translate(269.276 178.466)">
          <path id="Path_57" data-name="Path 57" class="cls-2" d="M85.4,103.9l8.829-6.306L87.922,85.609l11.036-7.883L92.652,65.744,106.211,56.6l3.468,5.045-8.829,6.306,6.622,11.982L96.121,87.5l6.622,12.3-13.558,9.144Z" transform="translate(-85.4 -56.6)"/>
        </g>
        <g id="Group_10" data-name="Group 10" transform="translate(136.526 350.637)">
          <path id="Path_58" data-name="Path 58" class="cls-2" d="M132.1,112.2l8.829-5.991-6.621-11.982,11.351-7.883-6.621-11.982L152.6,64.9l3.784,5.045-8.829,6.306,6.306,11.982-11.036,7.883,6.306,11.982-13.558,9.459Z" transform="translate(-132.1 -64.9)"/>
        </g>
        <g id="Group_11" data-name="Group 11" transform="translate(44.144 38.783)">
          <path id="Path_59" data-name="Path 59" class="cls-2" d="M43.639,55.182l-.631-10.721-13.874-.946L28.5,29.957l-13.558-.631L14,12.615l6.306-.315.631,11.036,13.558.631.631,13.558L49,38.471l.946,16.4Z" transform="translate(-14 -12.3)"/>
        </g>
        <g id="Group_12" data-name="Group 12" transform="translate(191.745 240.267)">
          <path id="Path_60" data-name="Path 60" class="cls-2" d="M74.964,103.632a13.858,13.858,0,0,1-13.243-9.144,14.855,14.855,0,0,1,.315-11.036A13.708,13.708,0,0,1,69.919,76.2l2.207,5.991a8.006,8.006,0,0,0-4.414,4.1,7.915,7.915,0,0,0-.315,5.991A8.006,8.006,0,0,0,71.5,96.7a7.914,7.914,0,0,0,5.991.315L79.694,103A24.339,24.339,0,0,1,74.964,103.632Z" transform="translate(-60.811 -76.2)"/>
        </g>
        <g id="Group_13" data-name="Group 13" transform="translate(272.15 277.474)">
          <path id="Path_61" data-name="Path 61" class="cls-2" d="M100.464,115.432a13.858,13.858,0,0,1-13.243-9.144,14.855,14.855,0,0,1,.315-11.036A13.708,13.708,0,0,1,95.419,88l2.207,5.991a8.006,8.006,0,0,0-4.414,4.1,7.915,7.915,0,0,0-.315,5.991A8.006,8.006,0,0,0,97,108.5a7.914,7.914,0,0,0,5.991.315l2.207,5.991A12.256,12.256,0,0,1,100.464,115.432Z" transform="translate(-307.311 -1)"/>
        </g>
        <g id="Group_14" data-name="Group 14" transform="translate(177.284 505.925)">
          <path id="Path_62" data-name="Path 62" class="cls-2" d="M133.763,75.745a13.14,13.14,0,0,1-2.522,5.676A13.537,13.537,0,0,1,122.1,87.1a14.454,14.454,0,0,1-10.721-2.522A13.537,13.537,0,0,1,105.7,75.43l6.306-.946a7.855,7.855,0,1,0,15.45-2.838l6.306-.946A13.541,13.541,0,0,1,133.763,75.745Z" transform="translate(-105.7 -70.7)"/>
        </g>
        <g id="Group_15" data-name="Group 15" transform="translate(70.351 134.953)">
          <path id="Path_63" data-name="Path 63" class="cls-2" d="M36.464,70.232a13.858,13.858,0,0,1-13.243-9.144,14.855,14.855,0,0,1,.315-11.036A13.708,13.708,0,0,1,31.419,42.8l2.207,5.991a8.006,8.006,0,0,0-4.414,4.1,7.914,7.914,0,0,0-.315,5.991A8.006,8.006,0,0,0,33,63.3a7.914,7.914,0,0,0,5.991.315L41.194,69.6A19.084,19.084,0,0,1,36.464,70.232Z" transform="translate(-22.311 -42.8)"/>
        </g>
        <g id="Group_18" data-name="Group 18" transform="translate(112.698 462.341)">
          <circle id="Ellipse_2-2" data-name="Ellipse 2" class="cls-2" cx="11.036" cy="11.036" r="11.036"/>
        </g>
      </g>
    </g>
    <path id="Path_1" data-name="Path 1" class="cls-3" d="M308.822,524.654a65.214,65.214,0,0,0,4.13,10.927,55.813,55.813,0,0,0,14.315,17.432,83.843,83.843,0,0,0,21.749,12.228,68.888,68.888,0,0,0,14.866,3.9c3.3.52,6.332,1.3,9.635,1.3h15.692c4.13,0,8.259-1.3,12.113-2.081,2.753-.52,5.23-1.821,7.983-2.6a69.049,69.049,0,0,0,15.968-7.805,74.4,74.4,0,0,0,9.91-8.326c5.781-4.943,9.911-10.667,13.765-16.912.551-1.04,1.1-2.081.551-3.122a36.872,36.872,0,0,0-4.68-2.081c-3.854-1.821-7.984-3.382-11.838-4.943-3.028-1.3-6.057-2.341-8.81-3.643-4.4-1.821-8.534-3.9-12.939-5.984a4.249,4.249,0,0,0-3.579-.26c-1.376,3.382-3.854,5.984-6.607,8.586-3.579,3.383-7.984,4.943-12.664,5.984-2.753.781-5.781.52-8.809.52a18.417,18.417,0,0,1-6.607-.781,41.064,41.064,0,0,1-7.158-2.862c-6.882-3.642-10.461-8.586-10.186-16.131V447.9a15.939,15.939,0,0,1,3.3-9.887,21.808,21.808,0,0,1,12.939-8.066,50.951,50.951,0,0,1,10.737-1.561c2.753,0,5.506.781,8.259,1.3a28.435,28.435,0,0,1,13.214,6.5c2.2,1.821,3.854,4.163,6.332,6.5a3.493,3.493,0,0,0,1.652,0c1.652-.521,3.3-1.3,4.956-1.821l5.781-2.341c3.854-1.3,7.433-2.6,11.287-3.9,4.13-1.561,7.984-3.122,12.113-4.683a25.765,25.765,0,0,0,3.854-1.821,7.329,7.329,0,0,0-.826-2.6c-1.652-2.6-3.028-5.464-4.955-8.065a65.762,65.762,0,0,0-15.692-16.651,76.217,76.217,0,0,0-12.664-7.545A102.908,102.908,0,0,0,404.35,389.1a33.6,33.6,0,0,0-4.955-1.041,74.086,74.086,0,0,0-7.433-1.3c-4.4-.26-8.81-.26-12.939-.26-2.753,0-5.781.521-8.534.521-2.477,0-4.68,1.041-6.882,1.3-5.231.781-9.911,2.6-14.591,3.9-1.376.52-3.028,1.04-4.4,1.561-2.753,1.3-5.506,2.862-8.259,4.423a49.634,49.634,0,0,0-11.287,8.326c-2.2,2.341-4.129,4.683-6.332,7.025a39.152,39.152,0,0,0-6.883,11.708c-1.1,2.6-1.652,5.724-2.478,8.586A29.115,29.115,0,0,0,308,443.479v67.386A29.542,29.542,0,0,0,308.822,524.654Z" transform="translate(2807.027 -298.039)"/>
    <path id="Path_2" data-name="Path 2" class="cls-3" d="M35.23,737.606H183.172a17.637,17.637,0,0,0,1.361-1.855l.371-1.113c.124-1.237.124-2.474.124-3.711q-.186-42.119-.371-84.238a.937.937,0,0,0-.247-.495c-.124-.124-.247-.247-1.237-1.113-1.113,0-3.092-.247-5.072-.247H45c-1.979,0-4.082.124-6.061,0a27.824,27.824,0,0,1-4.082-.99V578.531c2.35-2.35,5.072-1.856,7.793-1.856h157.59c1.979,0,3.835-.247,6.556-.371.371-6.556.124-12.617.124-18.678V520.394c0-6.309.124-12.617,0-18.926-.124-6.061.371-12.122-.247-18.678-2.227-.371-3.835-.99-5.566-.99-2.1,0-123.945.124-201.008.247V865.014H34.612V744.162C34.612,742.183,34.983,740.327,35.23,737.606Z" transform="translate(1982.997 109.499)"/>
    <path id="Path_3" data-name="Path 3" class="cls-3" d="M382.484,709.723c-1.052.962-2.1,2.044-3.288,3.126.658.721,1.052,1.2,1.578,1.683l10.257,10.1,15.386,14.789c.921.962,1.841,2.044,2.762,3.006,1.578,1.563,2.893,3.487,5.26,4.208,5.26-3.487,9.731-7.7,14.2-11.783a92.8,92.8,0,0,0,15.518-19.118,82.274,82.274,0,0,0,9.205-20.44c1.578-5.651,3.025-11.422,2.5-17.434-.263-3.246,0-6.613-.132-9.86a44.6,44.6,0,0,0-.658-7.214,86.653,86.653,0,0,0-3.682-15.27,84.031,84.031,0,0,0-2.762-8.056c-2.367-5.05-4.6-9.98-7.89-14.669a95.993,95.993,0,0,0-10.784-12.986,73.943,73.943,0,0,0-20.515-13.587c-4.6-2.044-9.469-3.006-14.334-4.088a50.756,50.756,0,0,0-12.1-.721c-5,0-9.994.361-14.992.6a2.788,2.788,0,0,0-1.052.12c-5.786,1.563-11.7,2.645-17.359,4.93a55.762,55.762,0,0,0-21.041,15.03c-7.1,8.056-11.7,17.435-15.123,27.294-2.893,8.176-4.734,16.593-6.707,25.009a27.75,27.75,0,0,1-.658,3.487c-1.052,3.006-2.236,5.891-3.288,8.9a25.12,25.12,0,0,1-4.6,8.056c-2.5,2.886-5.26,5.651-9.337,6.372a18.505,18.505,0,0,1-17.1-5.411c-4.208-4.328-5.786-9.619-5.918-15.39a39.33,39.33,0,0,1,3.025-16.953c2.367-5.531,5.129-10.821,9.337-15.27,1.841-1.924,3.551-3.848,5.523-5.892,0-.721-.132-1.563-.132-1.924-9.6-11.3-18.937-22.124-28.011-32.825a3.424,3.424,0,0,0-3.682.842,18.692,18.692,0,0,1-2.893,2.525c-4.866,3.246-8.548,7.7-12.362,11.9a89.77,89.77,0,0,0-9.074,12.865c-2.63,4.328-4.208,9.018-6.049,13.587a52.5,52.5,0,0,0-2.762,10.821,49.526,49.526,0,0,0-1.315,9.739c0,6.973-.658,14.068.526,21.041.658,4.208,1.315,8.417,2.367,12.5a93.513,93.513,0,0,0,3.419,9.619,66.755,66.755,0,0,0,8.811,15.991c1.841,2.4,3.945,4.689,6.049,6.974a24.88,24.88,0,0,0,3.551,3.727c5.786,4.208,11.31,8.657,18.411,10.941,2.893.962,5.655,2.164,8.548,3.006,2.1.6,4.471.6,6.707,1.082a49.511,49.511,0,0,0,18.805.481c5.129-.721,10.52-.962,15.255-3.126,3.288,0,6.049-1.563,8.679-2.886a68.345,68.345,0,0,0,21.435-15.03,76.745,76.745,0,0,0,11.047-14.789,69.613,69.613,0,0,0,7.1-16.593c.395-1.683,3.288-14.308,4.208-18.877,4.208-18.156,12.625-28.977,19.857-28.977,6.444-.361,10.915,2.4,14.2,7.214,3.025,4.449,4.077,9.258,4.34,14.308a52.816,52.816,0,0,1-4.34,23.687A56.566,56.566,0,0,1,382.484,709.723Z" transform="translate(2606.36 67.292)"/>
    <path id="Path_6" data-name="Path 6" class="cls-3" d="M624.049,588.843c2.22-.74,1.924,12.115,1.924,10.635V521.942c-15.241-11.394-30.778-22.64-46.167-33.885-15.537-11.394-31.074-22.936-46.611-34.329.888-1.48,2.368-1.184,3.7-1.184h84.935c1.332,0,2.664.444,4-1.184,0-.592.148-1.628.148-2.516V389.8a3.168,3.168,0,0,0-1.924-3.4H368.058c-1.332,3.7-.592,7.251-.592,10.8-.148,3.7,0,7.251,0,10.95v33.294c.148,3.551-.444,7.251.3,10.95a25.077,25.077,0,0,0,3.255.148h80.2a30.845,30.845,0,0,1,3.7,0,19.339,19.339,0,0,1,2.22.74c.444,1.776-.444,2.515-1.48,3.255-7.842,5.623-15.833,11.246-23.675,16.869-8.73,6.215-17.461,12.578-26.191,18.792-6.807,4.883-13.465,9.766-20.272,14.649l-13.761,9.766c-1.48,1.036-2.96,2.22-4.439,3.255v79.165c0,1.332-.444,2.663,1.332,4.143q65.7-50.384,132.138-100.916C542.073,536,583.06,555.106,624.049,588.843Z" transform="translate(3276.739 -368.259)"/>
    <path id="Path_7" data-name="Path 7" class="cls-3" d="M386.621,259.884c1.064,0,2.128-.118,3.309-.236.946-3.073,1.891-5.91,2.719-8.746s1.655-5.791,2.482-8.628c1.064-3.428,2.246-6.855,3.428-10.4,1.182-3.664,2.246-7.328,3.428-10.992a6.885,6.885,0,0,1,1.3-1.773h53.069a3.934,3.934,0,0,1,.709,1.182c1.891,5.2,3.782,10.519,5.437,15.72,1.655,5.082,3.073,10.283,4.728,15.365.591,2.009,1.182,4.137,1.891,6.146A20.428,20.428,0,0,0,470.657,260h50.351c1.3,0,2.6.118,3.9,0a7.078,7.078,0,0,0,1.891-.946c-1.064-3.073-1.891-5.91-2.955-8.746-1.418-4.019-2.955-8.037-4.491-12.056-1.537-4.137-3.073-8.274-4.491-12.41-1.655-4.61-3.073-9.337-4.846-13.947-2.837-7.8-5.673-15.483-8.51-23.166-1.891-5.082-3.664-10.283-5.555-15.365-.709-2.009-1.773-3.9-2.128-6.028-.591-2.837-2.009-5.319-2.837-8.155-1.3-4.61-3.309-8.983-4.964-13.592-1.536-4.255-2.718-8.51-4.255-12.765-1.655-4.491-3.428-8.983-5.082-13.474-1.536-4.255-18.32-50.941-19.147-53.424-1.064-2.955-2.127-6.028-3.191-9.1-.355-1.064-.827-2.127-1.3-3.191a9.829,9.829,0,0,0-1.536-.236H407.542a14.1,14.1,0,0,0-3.073.591c-.591,1.773-1.064,3.191-1.536,4.728-1.064,3.191-2.128,6.264-3.191,9.455-.709,2.246-1.536,4.491-2.364,6.619-1.182,3.191-2.364,6.382-3.428,9.692-.827,2.364-1.536,4.728-2.364,6.973-1.773,4.846-3.546,9.692-5.2,14.538-.473,1.418-1.064,2.837-1.536,4.255-1.064,2.955-2.009,5.91-3.073,8.746-.591,1.655-.828,3.309-1.537,4.846-1.418,2.955-2.127,6.264-3.309,9.337-.945,2.482-1.891,4.964-2.718,7.564l-4.964,14.538c-.945,2.837-2.009,5.555-3.073,8.392a49.349,49.349,0,0,0-2.364,6.619c-.709,3.309-2.246,6.264-3.191,9.337-.946,2.955-1.891,5.91-2.955,8.865-1.418,4.137-2.718,8.274-4.255,12.41-1.536,4.255-3.191,8.392-4.728,12.529-1.655,4.846-3.309,9.692-4.964,14.656-1.773,5.082-3.428,10.046-5.319,15.011-.945,2.246-1.418,4.728-2.246,6.973-.827,2.482-2.009,4.728-2.837,7.21a7.112,7.112,0,0,0,0,2.246,19.891,19.891,0,0,0,2.364.236C352.7,259.884,369.72,259.884,386.621,259.884ZM415.7,166.039c.946-3.782,2.128-7.564,3.073-11.465.946-3.664,1.655-7.328,2.482-10.874.118-.473.236-.827.355-1.182,1.773-6.737,3.546-13.474,5.2-20.211.709-2.6,1.182-5.2,1.773-7.8a7.757,7.757,0,0,1,1.182-2.009c.473,1.182.946,1.891,1.182,2.718.946,4.137,2.009,8.274,2.955,12.529.827,3.782,1.655,7.564,2.482,11.228.355,1.418.827,2.837,1.182,4.373.946,4.137,1.773,8.392,2.718,12.529,1.064,4.255,2.246,8.51,3.309,12.647.236.946.354,1.891.591,3.191-1.182.118-1.773.236-2.364.236H417.943c-1.064,0-2.246.236-2.955-1.182A32.647,32.647,0,0,1,415.7,166.039Z" transform="translate(2225.299 -182.62)"/>
    <path id="Path_5" data-name="Path 5" class="cls-3" d="M0,288.318H8.23c1.286,0,2.7-.129,3.6-.129,1.929-1.672,1.286-3.344,1.286-5.015V185.569c0-1.672-.386-3.344.9-4.758H94c1.543,1.8,1.286,3.6,1.286,5.4v45.138c-.129,17.875-.257,35.75-.386,53.754a12.277,12.277,0,0,0,.9,3.215h70.986a17.538,17.538,0,0,0,2.186-.514,3.432,3.432,0,0,0,.514-1.286q0-141.586.129-283.172a8.683,8.683,0,0,0-.257-1.8c0-.129-.129-.257-.257-.386l-.9-.9c-4.115-.514-8.873-.129-13.631-.129H110.337c-4.758.129-9.516-.386-13.76.129C94,2.831,95.419,5.275,95.419,7.59v97.991a18.675,18.675,0,0,1-.514,3.6H13.631a12.558,12.558,0,0,1-.772-2.958c0-2.058.386-4.115.386-6.3V3.732A3.685,3.685,0,0,0,10.8,0H0V288.318Z" transform="translate(1983 -107.884)"/>
    <g id="Group_1" data-name="Group 1" transform="translate(3182 -625)">
      <g id="Group_16-2" data-name="Group 16" transform="translate(192 517)">
        <path id="Path_50-2" data-name="Path 50" class="cls-2" d="M58.618,106.788l1.577-5.991L51.681,98.59,54.2,90.077,47.9,88.5,45.69,96.7l-8.2-2.207L35.6,100.482,44.113,103l-2.522,8.2,6.306,1.577,2.207-8.2Z" transform="translate(76.651 190.551)"/>
        <path id="Path_51-2" data-name="Path 51" class="cls-2" d="M68.5,33.8l1.577-5.991-8.2-2.522,2.207-8.2L58.1,15.2l-2.522,8.513-8.2-2.207L45.8,27.5,54,29.7l-2.207,8.513,5.991,1.577,2.207-8.2Z" transform="translate(98.613 32.727)"/>
        <path id="Path_52-2" data-name="Path 52" class="cls-2" d="M129.4,18.288l1.892-5.991-8.513-2.207L125.3,1.577,119,0,116.79,8.2l-8.513-2.207L106.7,12.3l8.513,2.207-2.523,8.2L119,24.594l2.207-8.513Z" transform="translate(229.737)"/>
        <g id="Group_2-2" data-name="Group 2" transform="translate(168.692 153.241)">
          <path id="Path_53-2" data-name="Path 53" class="cls-2" d="M76.2,66.888H53.5L64.851,48.6Z" transform="translate(-53.5 -48.6)"/>
        </g>
        <g id="Group_3-2" data-name="Group 3" transform="translate(417.157 63.378)">
          <path id="Path_54-2" data-name="Path 54" class="cls-2" d="M155,38.388H132.3L143.651,20.1Z" transform="translate(-132.3 -20.1)"/>
        </g>
        <g id="Group_4-2" data-name="Group 4" transform="translate(259.501 13.874)">
          <path id="Path_55-2" data-name="Path 55" class="cls-2" d="M101.849,13.859,82.3,25.841,82.615,4.4Z" transform="translate(-82.3 -4.4)"/>
        </g>
        <g id="Group_5-2" data-name="Group 5" transform="translate(89.548 221.979)">
          <path id="Path_56-2" data-name="Path 56" class="cls-2" d="M51.1,88.373H28.4L39.751,70.4Z" transform="translate(-28.4 -70.4)"/>
        </g>
        <g id="Group_6-2" data-name="Group 6" transform="translate(229.231 98.377)">
          <circle id="Ellipse_1-2" data-name="Ellipse 1" class="cls-2" cx="11.036" cy="11.036" r="11.036"/>
        </g>
        <g id="Group_7-2" data-name="Group 7" transform="translate(337.698 87.341)">
          <circle id="Ellipse_2-3" data-name="Ellipse 2" class="cls-2" cx="11.036" cy="11.036" r="11.036"/>
        </g>
        <g id="Group_8-2" data-name="Group 8" transform="translate(0 98.377)">
          <circle id="Ellipse_3-2" data-name="Ellipse 3" class="cls-2" cx="11.036" cy="11.036" r="11.036"/>
        </g>
        <g id="Group_9-2" data-name="Group 9" transform="translate(269.276 178.466)">
          <path id="Path_57-2" data-name="Path 57" class="cls-2" d="M85.4,103.9l8.829-6.306L87.922,85.609l11.036-7.883L92.652,65.744,106.211,56.6l3.468,5.045-8.829,6.306,6.622,11.982L96.121,87.5l6.622,12.3-13.558,9.144Z" transform="translate(-85.4 -56.6)"/>
        </g>
        <g id="Group_10-2" data-name="Group 10" transform="translate(416.526 204.637)">
          <path id="Path_58-2" data-name="Path 58" class="cls-2" d="M132.1,112.2l8.829-5.991-6.621-11.982,11.351-7.883-6.621-11.982L152.6,64.9l3.784,5.045-8.829,6.306,6.306,11.982-11.036,7.883,6.306,11.982-13.558,9.459Z" transform="translate(-132.1 -64.9)"/>
        </g>
        <g id="Group_11-2" data-name="Group 11" transform="translate(44.144 38.783)">
          <path id="Path_59-2" data-name="Path 59" class="cls-2" d="M43.639,55.182l-.631-10.721-13.874-.946L28.5,29.957l-13.558-.631L14,12.615l6.306-.315.631,11.036,13.558.631.631,13.558L49,38.471l.946,16.4Z" transform="translate(-14 -12.3)"/>
        </g>
        <g id="Group_12-2" data-name="Group 12" transform="translate(191.745 240.267)">
          <path id="Path_60-2" data-name="Path 60" class="cls-2" d="M74.964,103.632a13.858,13.858,0,0,1-13.243-9.144,14.855,14.855,0,0,1,.315-11.036A13.708,13.708,0,0,1,69.919,76.2l2.207,5.991a8.006,8.006,0,0,0-4.414,4.1,7.915,7.915,0,0,0-.315,5.991A8.006,8.006,0,0,0,71.5,96.7a7.914,7.914,0,0,0,5.991.315L79.694,103A24.339,24.339,0,0,1,74.964,103.632Z" transform="translate(-60.811 -76.2)"/>
        </g>
        <g id="Group_13-2" data-name="Group 13" transform="translate(272.15 277.474)">
          <path id="Path_61-2" data-name="Path 61" class="cls-2" d="M100.464,115.432a13.858,13.858,0,0,1-13.243-9.144,14.855,14.855,0,0,1,.315-11.036A13.708,13.708,0,0,1,95.419,88l2.207,5.991a8.006,8.006,0,0,0-4.414,4.1,7.915,7.915,0,0,0-.315,5.991A8.006,8.006,0,0,0,97,108.5a7.914,7.914,0,0,0,5.991.315l2.207,5.991A12.256,12.256,0,0,1,100.464,115.432Z" transform="translate(-86.311 -88)"/>
        </g>
        <g id="Group_14-2" data-name="Group 14" transform="translate(333.284 222.925)">
          <path id="Path_62-2" data-name="Path 62" class="cls-2" d="M133.763,75.745a13.14,13.14,0,0,1-2.522,5.676A13.537,13.537,0,0,1,122.1,87.1a14.454,14.454,0,0,1-10.721-2.522A13.537,13.537,0,0,1,105.7,75.43l6.306-.946a7.855,7.855,0,1,0,15.45-2.838l6.306-.946A13.541,13.541,0,0,1,133.763,75.745Z" transform="translate(-105.7 -70.7)"/>
        </g>
        <g id="Group_15-2" data-name="Group 15" transform="translate(70.351 134.953)">
          <path id="Path_63-2" data-name="Path 63" class="cls-2" d="M36.464,70.232a13.858,13.858,0,0,1-13.243-9.144,14.855,14.855,0,0,1,.315-11.036A13.708,13.708,0,0,1,31.419,42.8l2.207,5.991a8.006,8.006,0,0,0-4.414,4.1,7.914,7.914,0,0,0-.315,5.991A8.006,8.006,0,0,0,33,63.3a7.914,7.914,0,0,0,5.991.315L41.194,69.6A19.084,19.084,0,0,1,36.464,70.232Z" transform="translate(-22.311 -42.8)"/>
        </g>
      </g>
    </g>
    <g id="Group_19" data-name="Group 19" transform="translate(3182 -625)">
      <g id="Group_16-3" data-name="Group 16" transform="translate(192 517)">
        <path id="Path_50-3" data-name="Path 50" class="cls-2" d="M58.618,106.788l1.577-5.991L51.681,98.59,54.2,90.077,47.9,88.5,45.69,96.7l-8.2-2.207L35.6,100.482,44.113,103l-2.522,8.2,6.306,1.577,2.207-8.2Z" transform="translate(76.651 190.551)"/>
        <path id="Path_51-3" data-name="Path 51" class="cls-2" d="M68.5,33.8l1.577-5.991-8.2-2.522,2.207-8.2L58.1,15.2l-2.522,8.513-8.2-2.207L45.8,27.5,54,29.7l-2.207,8.513,5.991,1.577,2.207-8.2Z" transform="translate(98.613 32.727)"/>
        <path id="Path_52-3" data-name="Path 52" class="cls-2" d="M129.4,18.288l1.892-5.991-8.513-2.207L125.3,1.577,119,0,116.79,8.2l-8.513-2.207L106.7,12.3l8.513,2.207-2.523,8.2L119,24.594l2.207-8.513Z" transform="translate(229.737)"/>
        <g id="Group_2-3" data-name="Group 2" transform="translate(168.692 153.241)">
          <path id="Path_53-3" data-name="Path 53" class="cls-2" d="M76.2,66.888H53.5L64.851,48.6Z" transform="translate(-53.5 -48.6)"/>
        </g>
        <g id="Group_3-3" data-name="Group 3" transform="translate(417.157 63.378)">
          <path id="Path_54-3" data-name="Path 54" class="cls-2" d="M155,38.388H132.3L143.651,20.1Z" transform="translate(-132.3 -20.1)"/>
        </g>
        <g id="Group_4-3" data-name="Group 4" transform="translate(259.501 13.874)">
          <path id="Path_55-3" data-name="Path 55" class="cls-2" d="M101.849,13.859,82.3,25.841,82.615,4.4Z" transform="translate(-82.3 -4.4)"/>
        </g>
        <g id="Group_5-3" data-name="Group 5" transform="translate(89.548 221.979)">
          <path id="Path_56-3" data-name="Path 56" class="cls-2" d="M51.1,88.373H28.4L39.751,70.4Z" transform="translate(-28.4 -70.4)"/>
        </g>
        <g id="Group_6-3" data-name="Group 6" transform="translate(229.231 98.377)">
          <circle id="Ellipse_1-3" data-name="Ellipse 1" class="cls-2" cx="11.036" cy="11.036" r="11.036"/>
        </g>
        <g id="Group_7-3" data-name="Group 7" transform="translate(337.698 87.341)">
          <circle id="Ellipse_2-4" data-name="Ellipse 2" class="cls-2" cx="11.036" cy="11.036" r="11.036"/>
        </g>
        <g id="Group_8-3" data-name="Group 8" transform="translate(0 98.377)">
          <circle id="Ellipse_3-3" data-name="Ellipse 3" class="cls-2" cx="11.036" cy="11.036" r="11.036"/>
        </g>
        <g id="Group_9-3" data-name="Group 9" transform="translate(269.276 178.466)">
          <path id="Path_57-3" data-name="Path 57" class="cls-2" d="M85.4,103.9l8.829-6.306L87.922,85.609l11.036-7.883L92.652,65.744,106.211,56.6l3.468,5.045-8.829,6.306,6.622,11.982L96.121,87.5l6.622,12.3-13.558,9.144Z" transform="translate(-85.4 -56.6)"/>
        </g>
        <g id="Group_10-3" data-name="Group 10" transform="translate(416.526 204.637)">
          <path id="Path_58-3" data-name="Path 58" class="cls-2" d="M132.1,112.2l8.829-5.991-6.621-11.982,11.351-7.883-6.621-11.982L152.6,64.9l3.784,5.045-8.829,6.306,6.306,11.982-11.036,7.883,6.306,11.982-13.558,9.459Z" transform="translate(-132.1 -64.9)"/>
        </g>
        <g id="Group_11-3" data-name="Group 11" transform="translate(44.144 38.783)">
          <path id="Path_59-3" data-name="Path 59" class="cls-2" d="M43.639,55.182l-.631-10.721-13.874-.946L28.5,29.957l-13.558-.631L14,12.615l6.306-.315.631,11.036,13.558.631.631,13.558L49,38.471l.946,16.4Z" transform="translate(-14 -12.3)"/>
        </g>
        <g id="Group_12-3" data-name="Group 12" transform="translate(191.745 240.267)">
          <path id="Path_60-3" data-name="Path 60" class="cls-2" d="M74.964,103.632a13.858,13.858,0,0,1-13.243-9.144,14.855,14.855,0,0,1,.315-11.036A13.708,13.708,0,0,1,69.919,76.2l2.207,5.991a8.006,8.006,0,0,0-4.414,4.1,7.915,7.915,0,0,0-.315,5.991A8.006,8.006,0,0,0,71.5,96.7a7.914,7.914,0,0,0,5.991.315L79.694,103A24.339,24.339,0,0,1,74.964,103.632Z" transform="translate(-60.811 -76.2)"/>
        </g>
        <g id="Group_13-3" data-name="Group 13" transform="translate(272.15 277.474)">
          <path id="Path_61-3" data-name="Path 61" class="cls-2" d="M100.464,115.432a13.858,13.858,0,0,1-13.243-9.144,14.855,14.855,0,0,1,.315-11.036A13.708,13.708,0,0,1,95.419,88l2.207,5.991a8.006,8.006,0,0,0-4.414,4.1,7.915,7.915,0,0,0-.315,5.991A8.006,8.006,0,0,0,97,108.5a7.914,7.914,0,0,0,5.991.315l2.207,5.991A12.256,12.256,0,0,1,100.464,115.432Z" transform="translate(-86.311 -88)"/>
        </g>
        <g id="Group_14-3" data-name="Group 14" transform="translate(333.284 222.925)">
          <path id="Path_62-3" data-name="Path 62" class="cls-2" d="M133.763,75.745a13.14,13.14,0,0,1-2.522,5.676A13.537,13.537,0,0,1,122.1,87.1a14.454,14.454,0,0,1-10.721-2.522A13.537,13.537,0,0,1,105.7,75.43l6.306-.946a7.855,7.855,0,1,0,15.45-2.838l6.306-.946A13.541,13.541,0,0,1,133.763,75.745Z" transform="translate(-105.7 -70.7)"/>
        </g>
        <g id="Group_15-3" data-name="Group 15" transform="translate(70.351 134.953)">
          <path id="Path_63-3" data-name="Path 63" class="cls-2" d="M36.464,70.232a13.858,13.858,0,0,1-13.243-9.144,14.855,14.855,0,0,1,.315-11.036A13.708,13.708,0,0,1,31.419,42.8l2.207,5.991a8.006,8.006,0,0,0-4.414,4.1,7.914,7.914,0,0,0-.315,5.991A8.006,8.006,0,0,0,33,63.3a7.914,7.914,0,0,0,5.991.315L41.194,69.6A19.084,19.084,0,0,1,36.464,70.232Z" transform="translate(-22.311 -42.8)"/>
        </g>
      </g>
    </g>
    <g id="Group_20" data-name="Group 20" transform="translate(2584 254)">
      <g id="Group_16-4" data-name="Group 16" transform="translate(192 517)">
        <path id="Path_50-4" data-name="Path 50" class="cls-2" d="M58.618,106.788l1.577-5.991L51.681,98.59,54.2,90.077,47.9,88.5,45.69,96.7l-8.2-2.207L35.6,100.482,44.113,103l-2.522,8.2,6.306,1.577,2.207-8.2Z" transform="translate(76.651 190.551)"/>
        <path id="Path_51-4" data-name="Path 51" class="cls-2" d="M68.5,33.8l1.577-5.991-8.2-2.522,2.207-8.2L58.1,15.2l-2.522,8.513-8.2-2.207L45.8,27.5,54,29.7l-2.207,8.513,5.991,1.577,2.207-8.2Z" transform="translate(98.613 32.727)"/>
        <path id="Path_52-4" data-name="Path 52" class="cls-2" d="M129.4,18.288l1.892-5.991-8.513-2.207L125.3,1.577,119,0,116.79,8.2l-8.513-2.207L106.7,12.3l8.513,2.207-2.523,8.2L119,24.594l2.207-8.513Z" transform="translate(229.737)"/>
        <g id="Group_2-4" data-name="Group 2" transform="translate(168.692 153.241)">
          <path id="Path_53-4" data-name="Path 53" class="cls-2" d="M76.2,66.888H53.5L64.851,48.6Z" transform="translate(-53.5 -48.6)"/>
        </g>
        <g id="Group_3-4" data-name="Group 3" transform="translate(417.157 63.378)">
          <path id="Path_54-4" data-name="Path 54" class="cls-2" d="M155,38.388H132.3L143.651,20.1Z" transform="translate(-132.3 -20.1)"/>
        </g>
        <g id="Group_4-4" data-name="Group 4" transform="translate(259.501 13.874)">
          <path id="Path_55-4" data-name="Path 55" class="cls-2" d="M101.849,13.859,82.3,25.841,82.615,4.4Z" transform="translate(-82.3 -4.4)"/>
        </g>
        <g id="Group_5-4" data-name="Group 5" transform="translate(89.548 221.979)">
          <path id="Path_56-4" data-name="Path 56" class="cls-2" d="M51.1,88.373H28.4L39.751,70.4Z" transform="translate(-28.4 -70.4)"/>
        </g>
        <g id="Group_6-4" data-name="Group 6" transform="translate(229.231 98.377)">
          <circle id="Ellipse_1-4" data-name="Ellipse 1" class="cls-2" cx="11.036" cy="11.036" r="11.036"/>
        </g>
        <g id="Group_7-4" data-name="Group 7" transform="translate(337.698 87.341)">
          <circle id="Ellipse_2-5" data-name="Ellipse 2" class="cls-2" cx="11.036" cy="11.036" r="11.036"/>
        </g>
        <g id="Group_8-4" data-name="Group 8" transform="translate(0 98.377)">
          <circle id="Ellipse_3-4" data-name="Ellipse 3" class="cls-2" cx="11.036" cy="11.036" r="11.036"/>
        </g>
        <g id="Group_9-4" data-name="Group 9" transform="translate(269.276 178.466)">
          <path id="Path_57-4" data-name="Path 57" class="cls-2" d="M85.4,103.9l8.829-6.306L87.922,85.609l11.036-7.883L92.652,65.744,106.211,56.6l3.468,5.045-8.829,6.306,6.622,11.982L96.121,87.5l6.622,12.3-13.558,9.144Z" transform="translate(-85.4 -56.6)"/>
        </g>
        <g id="Group_10-4" data-name="Group 10" transform="translate(416.526 204.637)">
          <path id="Path_58-4" data-name="Path 58" class="cls-2" d="M132.1,112.2l8.829-5.991-6.621-11.982,11.351-7.883-6.621-11.982L152.6,64.9l3.784,5.045-8.829,6.306,6.306,11.982-11.036,7.883,6.306,11.982-13.558,9.459Z" transform="translate(-132.1 -64.9)"/>
        </g>
        <g id="Group_11-4" data-name="Group 11" transform="translate(44.144 38.783)">
          <path id="Path_59-4" data-name="Path 59" class="cls-2" d="M43.639,55.182l-.631-10.721-13.874-.946L28.5,29.957l-13.558-.631L14,12.615l6.306-.315.631,11.036,13.558.631.631,13.558L49,38.471l.946,16.4Z" transform="translate(-14 -12.3)"/>
        </g>
        <g id="Group_12-4" data-name="Group 12" transform="translate(191.745 240.267)">
          <path id="Path_60-4" data-name="Path 60" class="cls-2" d="M74.964,103.632a13.858,13.858,0,0,1-13.243-9.144,14.855,14.855,0,0,1,.315-11.036A13.708,13.708,0,0,1,69.919,76.2l2.207,5.991a8.006,8.006,0,0,0-4.414,4.1,7.915,7.915,0,0,0-.315,5.991A8.006,8.006,0,0,0,71.5,96.7a7.914,7.914,0,0,0,5.991.315L79.694,103A24.339,24.339,0,0,1,74.964,103.632Z" transform="translate(-60.811 -76.2)"/>
        </g>
        <g id="Group_13-4" data-name="Group 13" transform="translate(272.15 277.474)">
          <path id="Path_61-4" data-name="Path 61" class="cls-2" d="M100.464,115.432a13.858,13.858,0,0,1-13.243-9.144,14.855,14.855,0,0,1,.315-11.036A13.708,13.708,0,0,1,95.419,88l2.207,5.991a8.006,8.006,0,0,0-4.414,4.1,7.915,7.915,0,0,0-.315,5.991A8.006,8.006,0,0,0,97,108.5a7.914,7.914,0,0,0,5.991.315l2.207,5.991A12.256,12.256,0,0,1,100.464,115.432Z" transform="translate(-86.311 -88)"/>
        </g>
        <g id="Group_14-4" data-name="Group 14" transform="translate(333.284 222.925)">
          <path id="Path_62-4" data-name="Path 62" class="cls-2" d="M133.763,75.745a13.14,13.14,0,0,1-2.522,5.676A13.537,13.537,0,0,1,122.1,87.1a14.454,14.454,0,0,1-10.721-2.522A13.537,13.537,0,0,1,105.7,75.43l6.306-.946a7.855,7.855,0,1,0,15.45-2.838l6.306-.946A13.541,13.541,0,0,1,133.763,75.745Z" transform="translate(-105.7 -70.7)"/>
        </g>
        <g id="Group_15-4" data-name="Group 15" transform="translate(70.351 134.953)">
          <path id="Path_63-4" data-name="Path 63" class="cls-2" d="M36.464,70.232a13.858,13.858,0,0,1-13.243-9.144,14.855,14.855,0,0,1,.315-11.036A13.708,13.708,0,0,1,31.419,42.8l2.207,5.991a8.006,8.006,0,0,0-4.414,4.1,7.914,7.914,0,0,0-.315,5.991A8.006,8.006,0,0,0,33,63.3a7.914,7.914,0,0,0,5.991.315L41.194,69.6A19.084,19.084,0,0,1,36.464,70.232Z" transform="translate(-22.311 -42.8)"/>
        </g>
      </g>
    </g>
    <g id="Group_21" data-name="Group 21" transform="translate(2411 -804)">
      <g id="Group_16-5" data-name="Group 16" transform="translate(192 517)">
        <path id="Path_50-5" data-name="Path 50" class="cls-2" d="M58.618,106.788l1.577-5.991L51.681,98.59,54.2,90.077,47.9,88.5,45.69,96.7l-8.2-2.207L35.6,100.482,44.113,103l-2.522,8.2,6.306,1.577,2.207-8.2Z" transform="translate(76.651 190.551)"/>
        <path id="Path_51-5" data-name="Path 51" class="cls-2" d="M68.5,33.8l1.577-5.991-8.2-2.522,2.207-8.2L58.1,15.2l-2.522,8.513-8.2-2.207L45.8,27.5,54,29.7l-2.207,8.513,5.991,1.577,2.207-8.2Z" transform="translate(98.613 32.727)"/>
        <path id="Path_52-5" data-name="Path 52" class="cls-2" d="M129.4,18.288l1.892-5.991-8.513-2.207L125.3,1.577,119,0,116.79,8.2l-8.513-2.207L106.7,12.3l8.513,2.207-2.523,8.2L119,24.594l2.207-8.513Z" transform="translate(229.737)"/>
        <g id="Group_2-5" data-name="Group 2" transform="translate(168.692 153.241)">
          <path id="Path_53-5" data-name="Path 53" class="cls-2" d="M76.2,66.888H53.5L64.851,48.6Z" transform="translate(-53.5 -48.6)"/>
        </g>
        <g id="Group_3-5" data-name="Group 3" transform="translate(417.157 63.378)">
          <path id="Path_54-5" data-name="Path 54" class="cls-2" d="M155,38.388H132.3L143.651,20.1Z" transform="translate(-132.3 -20.1)"/>
        </g>
        <g id="Group_4-5" data-name="Group 4" transform="translate(259.501 13.874)">
          <path id="Path_55-5" data-name="Path 55" class="cls-2" d="M101.849,13.859,82.3,25.841,82.615,4.4Z" transform="translate(-82.3 -4.4)"/>
        </g>
        <g id="Group_5-5" data-name="Group 5" transform="translate(89.548 221.979)">
          <path id="Path_56-5" data-name="Path 56" class="cls-2" d="M51.1,88.373H28.4L39.751,70.4Z" transform="translate(-28.4 -70.4)"/>
        </g>
        <g id="Group_6-5" data-name="Group 6" transform="translate(229.231 98.377)">
          <circle id="Ellipse_1-5" data-name="Ellipse 1" class="cls-2" cx="11.036" cy="11.036" r="11.036"/>
        </g>
        <g id="Group_7-5" data-name="Group 7" transform="translate(337.698 87.341)">
          <circle id="Ellipse_2-6" data-name="Ellipse 2" class="cls-2" cx="11.036" cy="11.036" r="11.036"/>
        </g>
        <g id="Group_8-5" data-name="Group 8" transform="translate(0 98.377)">
          <circle id="Ellipse_3-5" data-name="Ellipse 3" class="cls-2" cx="11.036" cy="11.036" r="11.036"/>
        </g>
        <g id="Group_9-5" data-name="Group 9" transform="translate(269.276 178.466)">
          <path id="Path_57-5" data-name="Path 57" class="cls-2" d="M85.4,103.9l8.829-6.306L87.922,85.609l11.036-7.883L92.652,65.744,106.211,56.6l3.468,5.045-8.829,6.306,6.622,11.982L96.121,87.5l6.622,12.3-13.558,9.144Z" transform="translate(-85.4 -56.6)"/>
        </g>
        <g id="Group_10-5" data-name="Group 10" transform="translate(416.526 204.637)">
          <path id="Path_58-5" data-name="Path 58" class="cls-2" d="M132.1,112.2l8.829-5.991-6.621-11.982,11.351-7.883-6.621-11.982L152.6,64.9l3.784,5.045-8.829,6.306,6.306,11.982-11.036,7.883,6.306,11.982-13.558,9.459Z" transform="translate(-132.1 -64.9)"/>
        </g>
        <g id="Group_11-5" data-name="Group 11" transform="translate(44.144 38.783)">
          <path id="Path_59-5" data-name="Path 59" class="cls-2" d="M43.639,55.182l-.631-10.721-13.874-.946L28.5,29.957l-13.558-.631L14,12.615l6.306-.315.631,11.036,13.558.631.631,13.558L49,38.471l.946,16.4Z" transform="translate(-14 -12.3)"/>
        </g>
        <g id="Group_12-5" data-name="Group 12" transform="translate(191.745 240.267)">
          <path id="Path_60-5" data-name="Path 60" class="cls-2" d="M74.964,103.632a13.858,13.858,0,0,1-13.243-9.144,14.855,14.855,0,0,1,.315-11.036A13.708,13.708,0,0,1,69.919,76.2l2.207,5.991a8.006,8.006,0,0,0-4.414,4.1,7.915,7.915,0,0,0-.315,5.991A8.006,8.006,0,0,0,71.5,96.7a7.914,7.914,0,0,0,5.991.315L79.694,103A24.339,24.339,0,0,1,74.964,103.632Z" transform="translate(-60.811 -76.2)"/>
        </g>
        <g id="Group_13-5" data-name="Group 13" transform="translate(272.15 277.474)">
          <path id="Path_61-5" data-name="Path 61" class="cls-2" d="M100.464,115.432a13.858,13.858,0,0,1-13.243-9.144,14.855,14.855,0,0,1,.315-11.036A13.708,13.708,0,0,1,95.419,88l2.207,5.991a8.006,8.006,0,0,0-4.414,4.1,7.915,7.915,0,0,0-.315,5.991A8.006,8.006,0,0,0,97,108.5a7.914,7.914,0,0,0,5.991.315l2.207,5.991A12.256,12.256,0,0,1,100.464,115.432Z" transform="translate(-86.311 -88)"/>
        </g>
        <g id="Group_14-5" data-name="Group 14" transform="translate(333.284 222.925)">
          <path id="Path_62-5" data-name="Path 62" class="cls-2" d="M133.763,75.745a13.14,13.14,0,0,1-2.522,5.676A13.537,13.537,0,0,1,122.1,87.1a14.454,14.454,0,0,1-10.721-2.522A13.537,13.537,0,0,1,105.7,75.43l6.306-.946a7.855,7.855,0,1,0,15.45-2.838l6.306-.946A13.541,13.541,0,0,1,133.763,75.745Z" transform="translate(-105.7 -70.7)"/>
        </g>
        <g id="Group_15-5" data-name="Group 15" transform="translate(70.351 134.953)">
          <path id="Path_63-5" data-name="Path 63" class="cls-2" d="M36.464,70.232a13.858,13.858,0,0,1-13.243-9.144,14.855,14.855,0,0,1,.315-11.036A13.708,13.708,0,0,1,31.419,42.8l2.207,5.991a8.006,8.006,0,0,0-4.414,4.1,7.914,7.914,0,0,0-.315,5.991A8.006,8.006,0,0,0,33,63.3a7.914,7.914,0,0,0,5.991.315L41.194,69.6A19.084,19.084,0,0,1,36.464,70.232Z" transform="translate(-22.311 -42.8)"/>
        </g>
      </g>
    </g>
    <g id="Group_22" data-name="Group 22" transform="translate(1739 238)">
      <g id="Group_16-6" data-name="Group 16" transform="translate(192 517)">
        <path id="Path_50-6" data-name="Path 50" class="cls-2" d="M58.618,106.788l1.577-5.991L51.681,98.59,54.2,90.077,47.9,88.5,45.69,96.7l-8.2-2.207L35.6,100.482,44.113,103l-2.522,8.2,6.306,1.577,2.207-8.2Z" transform="translate(76.651 190.551)"/>
        <path id="Path_51-6" data-name="Path 51" class="cls-2" d="M68.5,33.8l1.577-5.991-8.2-2.522,2.207-8.2L58.1,15.2l-2.522,8.513-8.2-2.207L45.8,27.5,54,29.7l-2.207,8.513,5.991,1.577,2.207-8.2Z" transform="translate(98.613 32.727)"/>
        <path id="Path_52-6" data-name="Path 52" class="cls-2" d="M129.4,18.288l1.892-5.991-8.513-2.207L125.3,1.577,119,0,116.79,8.2l-8.513-2.207L106.7,12.3l8.513,2.207-2.523,8.2L119,24.594l2.207-8.513Z" transform="translate(229.737)"/>
        <g id="Group_2-6" data-name="Group 2" transform="translate(168.692 153.241)">
          <path id="Path_53-6" data-name="Path 53" class="cls-2" d="M76.2,66.888H53.5L64.851,48.6Z" transform="translate(-53.5 -48.6)"/>
        </g>
        <g id="Group_3-6" data-name="Group 3" transform="translate(417.157 63.378)">
          <path id="Path_54-6" data-name="Path 54" class="cls-2" d="M155,38.388H132.3L143.651,20.1Z" transform="translate(-132.3 -20.1)"/>
        </g>
        <g id="Group_4-6" data-name="Group 4" transform="translate(259.501 13.874)">
          <path id="Path_55-6" data-name="Path 55" class="cls-2" d="M101.849,13.859,82.3,25.841,82.615,4.4Z" transform="translate(-82.3 -4.4)"/>
        </g>
        <g id="Group_5-6" data-name="Group 5" transform="translate(89.548 221.979)">
          <path id="Path_56-6" data-name="Path 56" class="cls-2" d="M51.1,88.373H28.4L39.751,70.4Z" transform="translate(-28.4 -70.4)"/>
        </g>
        <g id="Group_6-6" data-name="Group 6" transform="translate(229.231 98.377)">
          <circle id="Ellipse_1-6" data-name="Ellipse 1" class="cls-2" cx="11.036" cy="11.036" r="11.036"/>
        </g>
        <g id="Group_7-6" data-name="Group 7" transform="translate(337.698 87.341)">
          <circle id="Ellipse_2-7" data-name="Ellipse 2" class="cls-2" cx="11.036" cy="11.036" r="11.036"/>
        </g>
        <g id="Group_8-6" data-name="Group 8" transform="translate(0 98.377)">
          <circle id="Ellipse_3-6" data-name="Ellipse 3" class="cls-2" cx="11.036" cy="11.036" r="11.036"/>
        </g>
        <g id="Group_9-6" data-name="Group 9" transform="translate(269.276 178.466)">
          <path id="Path_57-6" data-name="Path 57" class="cls-2" d="M85.4,103.9l8.829-6.306L87.922,85.609l11.036-7.883L92.652,65.744,106.211,56.6l3.468,5.045-8.829,6.306,6.622,11.982L96.121,87.5l6.622,12.3-13.558,9.144Z" transform="translate(-85.4 -56.6)"/>
        </g>
        <g id="Group_10-6" data-name="Group 10" transform="translate(416.526 204.637)">
          <path id="Path_58-6" data-name="Path 58" class="cls-2" d="M132.1,112.2l8.829-5.991-6.621-11.982,11.351-7.883-6.621-11.982L152.6,64.9l3.784,5.045-8.829,6.306,6.306,11.982-11.036,7.883,6.306,11.982-13.558,9.459Z" transform="translate(-132.1 -64.9)"/>
        </g>
        <g id="Group_11-6" data-name="Group 11" transform="translate(44.144 38.783)">
          <path id="Path_59-6" data-name="Path 59" class="cls-2" d="M43.639,55.182l-.631-10.721-13.874-.946L28.5,29.957l-13.558-.631L14,12.615l6.306-.315.631,11.036,13.558.631.631,13.558L49,38.471l.946,16.4Z" transform="translate(-14 -12.3)"/>
        </g>
        <g id="Group_12-6" data-name="Group 12" transform="translate(191.745 240.267)">
          <path id="Path_60-6" data-name="Path 60" class="cls-2" d="M74.964,103.632a13.858,13.858,0,0,1-13.243-9.144,14.855,14.855,0,0,1,.315-11.036A13.708,13.708,0,0,1,69.919,76.2l2.207,5.991a8.006,8.006,0,0,0-4.414,4.1,7.915,7.915,0,0,0-.315,5.991A8.006,8.006,0,0,0,71.5,96.7a7.914,7.914,0,0,0,5.991.315L79.694,103A24.339,24.339,0,0,1,74.964,103.632Z" transform="translate(-60.811 -76.2)"/>
        </g>
        <g id="Group_13-6" data-name="Group 13" transform="translate(272.15 277.474)">
          <path id="Path_61-6" data-name="Path 61" class="cls-2" d="M100.464,115.432a13.858,13.858,0,0,1-13.243-9.144,14.855,14.855,0,0,1,.315-11.036A13.708,13.708,0,0,1,95.419,88l2.207,5.991a8.006,8.006,0,0,0-4.414,4.1,7.915,7.915,0,0,0-.315,5.991A8.006,8.006,0,0,0,97,108.5a7.914,7.914,0,0,0,5.991.315l2.207,5.991A12.256,12.256,0,0,1,100.464,115.432Z" transform="translate(-86.311 -88)"/>
        </g>
        <g id="Group_14-6" data-name="Group 14" transform="translate(333.284 222.925)">
          <path id="Path_62-6" data-name="Path 62" class="cls-2" d="M133.763,75.745a13.14,13.14,0,0,1-2.522,5.676A13.537,13.537,0,0,1,122.1,87.1a14.454,14.454,0,0,1-10.721-2.522A13.537,13.537,0,0,1,105.7,75.43l6.306-.946a7.855,7.855,0,1,0,15.45-2.838l6.306-.946A13.541,13.541,0,0,1,133.763,75.745Z" transform="translate(-105.7 -70.7)"/>
        </g>
        <g id="Group_15-6" data-name="Group 15" transform="translate(70.351 134.953)">
          <path id="Path_63-6" data-name="Path 63" class="cls-2" d="M36.464,70.232a13.858,13.858,0,0,1-13.243-9.144,14.855,14.855,0,0,1,.315-11.036A13.708,13.708,0,0,1,31.419,42.8l2.207,5.991a8.006,8.006,0,0,0-4.414,4.1,7.914,7.914,0,0,0-.315,5.991A8.006,8.006,0,0,0,33,63.3a7.914,7.914,0,0,0,5.991.315L41.194,69.6A19.084,19.084,0,0,1,36.464,70.232Z" transform="translate(-22.311 -42.8)"/>
        </g>
      </g>
    </g>
    <g id="Symbol_1_1" data-name="Symbol 1 – 1" transform="translate(1983 -108)">
      <text id="U" class="cls-4" transform="translate(1586 975)"><tspan x="0" y="0">U</tspan></text>
    </g>
  </g>
</svg>
