<svg id="Layer_1" data-name="Layer 1" xmlns="http://www.w3.org/2000/svg" xmlns:xlink="http://www.w3.org/1999/xlink" viewBox="0 0 1280 695.21"><defs><style>.cls-1{fill:none;}.cls-2{fill:#1fe1e5;}.cls-3{clip-path:url(#clip-path);}</style><clipPath id="clip-path"><rect class="cls-1" y="-2037.99" width="1280" height="4835"/></clipPath></defs><title>HackFSU5</title><polygon class="cls-2" points="260.29 467.68 255.03 458.74 242.81 465.93 235.62 453.7 226.67 458.96 233.86 471.19 221.64 478.38 226.9 487.32 239.12 480.13 246.31 492.35 255.26 487.09 248.07 474.87 260.29 467.68"/><polygon class="cls-2" points="1198.74 222.34 1191.4 215 1181.37 225.03 1171.35 215 1164.01 222.34 1174.04 232.37 1164.01 242.4 1171.35 249.73 1181.37 239.7 1191.4 249.73 1198.74 242.4 1188.71 232.37 1198.74 222.34"/><polygon class="cls-2" points="397.65 393.04 360.94 399.95 373.77 367.2 397.65 393.04"/><g class="cls-3"><path class="cls-2" d="M555.79,459.35a18.26,18.26,0,1,1-13.09-22.26,18.26,18.26,0,0,1,13.09,22.26"/><polygon class="cls-2" points="489.23 381.54 492.72 364.11 471.37 357.28 475.78 335.31 454.43 328.48 459.75 301.96 469.93 304 466.43 321.42 487.78 328.25 483.37 350.22 504.72 357.05 499.4 383.58 489.23 381.54"/><polygon class="cls-2" points="1187.42 130.05 1174.72 117.6 1157.34 131.76 1141.35 116.06 1123.97 130.22 1104.66 111.27 1111.93 103.87 1124.61 116.31 1141.99 102.15 1157.98 117.85 1175.37 103.7 1194.68 122.64 1187.42 130.05"/><polygon class="cls-2" points="397.51 200.09 389.13 206.2 397.49 217.66 386.03 226.02 392.15 234.4 403.61 226.04 411.96 237.5 420.35 231.38 411.99 219.93 423.44 211.57 417.33 203.19 405.87 211.54 397.51 200.09"/><polygon class="cls-2" points="195.79 80.16 186.71 75.15 179.86 87.56 167.44 80.71 162.43 89.8 174.84 96.65 167.99 109.06 177.08 114.08 183.93 101.66 196.34 108.51 201.36 99.43 188.94 92.58 195.79 80.16"/><polygon class="cls-2" points="42.88 523.09 44.04 560.43 13.67 542.69 42.88 523.09"/><polygon class="cls-2" points="562.6 291.62 538.98 262.68 573.88 258.3 562.6 291.62"/><path class="cls-2" d="M225.52,345.73a18.26,18.26,0,1,1-20.86,15.22,18.26,18.26,0,0,1,20.86-15.22"/><path class="cls-2" d="M51.44,219.46a18.26,18.26,0,1,1-20.86,15.22,18.26,18.26,0,0,1,20.86-15.22"/><polygon class="cls-2" points="958.84 376.44 949.89 381.7 957.08 393.92 944.86 401.12 950.12 410.06 962.34 402.87 969.53 415.09 978.48 409.83 971.29 397.61 983.51 390.42 978.25 381.47 966.03 388.67 958.84 376.44"/><polygon class="cls-2" points="901.5 639.99 894.16 647.33 904.19 657.36 894.16 667.39 901.5 674.72 911.52 664.69 921.55 674.72 928.89 667.39 918.86 657.36 928.89 647.33 921.55 639.99 911.52 650.02 901.5 639.99"/><polygon class="cls-2" points="884.19 239.08 891.11 275.79 858.36 262.96 884.19 239.08"/><path class="cls-2" d="M950.5,80.94A18.26,18.26,0,1,1,928.24,94,18.26,18.26,0,0,1,950.5,80.94"/><polygon class="cls-2" points="588.7 122.5 571.26 119.01 564.43 140.37 542.46 135.95 535.64 157.3 509.12 151.98 511.16 141.8 528.58 145.3 535.4 123.95 557.38 128.36 564.21 107.01 590.74 112.33 588.7 122.5"/><polygon class="cls-2" points="1031.21 204.31 1018.76 217.01 1032.91 234.39 1017.22 250.39 1031.38 267.76 1012.43 287.07 1005.02 279.8 1017.47 267.12 1003.31 249.74 1019.01 233.75 1004.85 216.37 1023.8 197.05 1031.21 204.31"/><polygon class="cls-2" points="691.24 239.22 697.36 247.6 708.81 239.24 717.17 250.7 725.55 244.58 717.2 233.13 728.65 224.77 722.54 216.39 711.08 224.74 702.72 213.29 694.34 219.4 702.7 230.86 691.24 239.22"/><polygon class="cls-2" points="571.32 440.94 566.3 450.02 578.72 456.87 571.87 469.29 580.95 474.3 587.8 461.89 600.22 468.74 605.23 459.65 592.82 452.8 599.67 440.38 590.59 435.37 583.73 447.79 571.32 440.94"/><polygon class="cls-2" points="1014.25 593.85 1051.59 592.69 1033.85 623.06 1014.25 593.85"/><polygon class="cls-2" points="782.77 74.13 753.84 97.75 749.46 62.85 782.77 74.13"/><path class="cls-2" d="M836.88,411.21a18.26,18.26,0,1,1,15.22,20.86,18.26,18.26,0,0,1-15.22-20.86"/><path class="cls-2" d="M710.61,585.29a18.26,18.26,0,1,1,15.22,20.86,18.26,18.26,0,0,1-15.22-20.86"/></g><rect class="cls-1" y="-2037.99" width="1280" height="4835"/></svg>